<?xml version="1.0" encoding="utf-8"?>
<!-- Generator: Adobe Illustrator 21.0.0, SVG Export Plug-In . SVG Version: 6.00 Build 0)  -->
<svg version="1.1" id="Layer_1" xmlns="http://www.w3.org/2000/svg" xmlns:xlink="http://www.w3.org/1999/xlink" x="0px" y="0px"
	 viewBox="0 0 384 384" style="enable-background:new 0 0 384 384;" xml:space="preserve">
<path d="M192.8,0c-46.4,0-84,37.6-84,84h168C276.8,37.6,239.1,0,192.8,0z M384,216.7c-0.4,13.1-11.4,23.3-24.5,23.3H318v12
	c0,16.4-3.7,31.9-10.2,45.9L353,343c9.4,9.4,9.4,24.6,0,33.9c-9.4,9.4-24.6,9.4-33.9,0L278,335.9C259.4,351,235.8,360,210,360V177
	c0-5-4-9-9-9h-18c-5,0-9,4-9,9v183c-25.8,0-49.4-9-68-24.1L65,377c-9.4,9.4-24.6,9.4-33.9,0s-9.4-24.6,0-33.9l45.2-45.2
	C69.7,283.9,66,268.4,66,252v-12H24.5C11.4,240,0.4,229.7,0,216.7C-0.4,203.1,10.5,192,24,192h42v-44.1l-35-35
	c-9.4-9.4-9.4-24.6,0-33.9c9.4-9.4,24.6-9.4,33.9,0l41,41h172.1l41-41c9.4-9.4,24.6-9.4,33.9,0s9.4,24.6,0,33.9l-35,35V192h42
	C373.5,192,384.4,203.1,384,216.7z"/>
</svg>
