<?xml version="1.0" encoding="utf-8"?>
<!-- Generator: Adobe Illustrator 21.0.0, SVG Export Plug-In . SVG Version: 6.00 Build 0)  -->
<svg version="1.1" id="Layer_1" xmlns="http://www.w3.org/2000/svg" xmlns:xlink="http://www.w3.org/1999/xlink" x="0px" y="0px"
	 viewBox="0 0 512 512" style="enable-background:new 0 0 512 512;" xml:space="preserve">
<g>
	<path d="M196.5,340v-72c0-6.6-5.4-12-12-12h-40c-6.6,0-12,5.4-12,12v72c0,6.6,5.4,12,12,12h40C191.1,352,196.5,346.6,196.5,340z"/>
	<path d="M385.5,340V204c0-6.6-5.4-12-12-12h-40c-6.6,0-12,5.4-12,12v136c0,6.6,5.4,12,12,12h40C380.1,352,385.5,346.6,385.5,340z"
		/>
	<path d="M291,340V140c0-6.6-5.4-12-12-12h-40c-6.6,0-12,5.4-12,12v200c0,6.6,5.4,12,12,12h40C285.6,352,291,346.6,291,340z"/>
	<path d="M480,340V108c0-6.6-5.4-12-12-12h-40c-6.6,0-12,5.4-12,12v232c0,6.6,5.4,12,12,12h40C474.6,352,480,346.6,480,340z"/>
	<path d="M102,340V140c0-6.6-5.4-12-12-12H50c-6.6,0-12,5.4-12,12v200c0,6.6,5.4,12,12,12h40C96.6,352,102,346.6,102,340z"/>
</g>
</svg>
