<?xml version="1.0" encoding="utf-8"?>
<!-- Generator: Adobe Illustrator 21.0.0, SVG Export Plug-In . SVG Version: 6.00 Build 0)  -->
<svg version="1.1" id="Layer_1" xmlns="http://www.w3.org/2000/svg" xmlns:xlink="http://www.w3.org/1999/xlink" x="0px" y="0px"
	 viewBox="0 0 383 384" style="enable-background:new 0 0 383 384;" xml:space="preserve">
<style type="text/css">
	.st0{fill:#010101;}
</style>
<g>
	<g>
		<g>
			<path class="st0" d="M368.4,245.7c-2.3,0-3.5-1.2-5.8-2.3L191.1,101L18.3,243.4c-3.5,3.5-9.3,2.3-12.8-1.2
				c-2.3-3.5-1.2-9.3,2.3-12.8L185.2,83.5c3.5-2.3,8.2-2.3,11.7,0l178.6,147.1c3.5,3.5,4.7,8.2,1.2,12.8
				C374.3,244.5,371.9,245.7,368.4,245.7z"/>
		</g>
	</g>
	<g>
		<g>
			<path class="st0" d="M191.1,98.6c-4.7,0-9.3-3.5-9.3-9.3V14.6c1.2-5.8,4.7-9.3,9.3-9.3s9.3,3.5,9.3,9.3v75.9
				C200.4,95.1,195.7,98.6,191.1,98.6z"/>
		</g>
	</g>
	<g>
		<g>
			<path class="st0" d="M217.9,46.1h-53.7c-4.7,0-9.3-3.5-9.3-9.3s4.7-8.2,9.3-8.2h53.7c4.7,0,8.2,3.5,8.2,9.3
				S222.6,46.1,217.9,46.1z"/>
		</g>
	</g>
	<g>
		<g>
			<path class="st0" d="M327.6,190.8L196.9,83.5c-3.5-2.3-8.2-2.3-11.7,0L54.5,190.8c-2.3,2.3-3.5,4.7-3.5,7v171.6
				c0,5.8,3.5,9.3,9.3,9.3h84c4.7,0,9.3-3.5,9.3-9.3v-74.7c0-21,16.3-37.3,37.3-37.3s37.3,16.3,37.3,37.3v74.7
				c0,4.7,3.5,9.3,9.3,9.3h85.2c4.7,0,9.3-3.5,9.3-9.3V197.8C331.1,195.5,329.9,193.2,327.6,190.8z"/>
		</g>
	</g>
</g>
</svg>
