<?xml version="1.0" encoding="utf-8"?>
<!-- Generator: Adobe Illustrator 21.0.0, SVG Export Plug-In . SVG Version: 6.00 Build 0)  -->
<svg version="1.1" id="Layer_1" xmlns="http://www.w3.org/2000/svg" xmlns:xlink="http://www.w3.org/1999/xlink" x="0px" y="0px"
	 viewBox="0 0 64 64" style="enable-background:new 0 0 64 64;" xml:space="preserve">
<g>
	<path d="M32,1.9c-16.5,0-30,13.4-30.1,30C1.9,48.5,15.3,62,31.9,62.1c0,0,0.1,0,0.1,0c16.5,0,30-13.4,30.1-30
		C62.1,15.5,48.7,2,32,1.9z M50.1,22.4c0-0.7,0.5-1.2,1.2-1.2c0,0,0,0,0,0c0.7,0,1.2,0.5,1.2,1.2l0,2.4c0,0.7-0.5,1.2-1.2,1.2
		c0,0,0,0,0,0c-0.7,0-1.2-0.5-1.2-1.2L50.1,22.4z M28.8,9.5c0.5-0.5,1.2-0.5,1.7,0l2.4,2.4c0.5,0.5,0.5,1.2,0,1.7
		c-0.2,0.2-0.5,0.3-0.8,0.3c-0.3,0-0.6-0.1-0.9-0.4l-2.4-2.4C28.3,10.7,28.4,10,28.8,9.5z M18.8,15.1c0-0.7,0.5-1.2,1.2-1.2
		c0,0,0,0,0,0c0.7,0,1.2,0.5,1.2,1.2l0,2.4c0,0.7-0.5,1.2-1.2,1.2c0,0,0,0,0,0c-0.7,0-1.2-0.5-1.2-1.2L18.8,15.1z M10.3,35.5
		C10.3,35.5,10.3,35.5,10.3,35.5l-2.4,0c-0.7,0-1.2-0.5-1.2-1.2c0-0.7,0.5-1.2,1.2-1.2l2.4,0c0.7,0,1.2,0.5,1.2,1.2
		S11,35.5,10.3,35.5z M11.2,25.6c-0.2,0.2-0.5,0.4-0.8,0.4c-0.3,0-0.6-0.1-0.9-0.4c-0.5-0.5-0.5-1.2,0-1.7l2.4-2.4
		c0.5-0.5,1.2-0.5,1.7,0c0.5,0.5,0.5,1.2,0,1.7L11.2,25.6z M16.3,44c0,0.7-0.5,1.2-1.2,1.2c0,0,0,0,0,0c-0.7,0-1.2-0.5-1.2-1.2
		l0-2.4c0-0.7,0.5-1.2,1.2-1.2c0,0,0,0,0,0c0.7,0,1.2,0.5,1.2,1.2L16.3,44z M22.3,52.4C22.3,52.4,22.3,52.4,22.3,52.4l-2.4,0
		c-0.7,0-1.2-0.5-1.2-1.2c0-0.7,0.5-1.2,1.2-1.2c0,0,0,0,0,0l2.4,0c0.7,0,1.2,0.5,1.2,1.2C23.5,51.9,23,52.4,22.3,52.4z M31.9,52.5
		C31.9,52.5,31.9,52.5,31.9,52.5l-2.4,0c-0.7,0-1.2-0.5-1.2-1.2c0-0.7,0.5-1.2,1.2-1.2c0,0,0,0,0,0l2.4,0c0.7,0,1.2,0.5,1.2,1.2
		C33.1,51.9,32.6,52.5,31.9,52.5z M42.8,48.9c0,0.7-0.5,1.2-1.2,1.2c0,0,0,0,0,0c-0.7,0-1.2-0.5-1.2-1.2l0-2.4
		c0-0.7,0.5-1.2,1.2-1.2c0,0,0,0,0,0c0.7,0,1.2,0.5,1.2,1.2L42.8,48.9z M32,42.8c-6,0-10.8-4.9-10.8-10.9c0-6,4.9-10.8,10.8-10.8V20
		l0,1.2c2.9,0,5.6,1.1,7.6,3.2c2,2.1,3.2,4.8,3.1,7.7C42.8,38,37.9,42.8,32,42.8z M44.1,16.4C44.1,16.4,44.1,16.4,44.1,16.4l-2.4,0
		c-0.7,0-1.2-0.5-1.2-1.2c0-0.7,0.5-1.2,1.2-1.2c0,0,0,0,0,0l2.4,0c0.7,0,1.2,0.5,1.2,1.2C45.3,15.9,44.8,16.4,44.1,16.4z
		 M52.1,42.5l-2.4,2.4c-0.2,0.2-0.5,0.3-0.8,0.3c-0.3,0-0.6-0.1-0.9-0.4c-0.5-0.5-0.5-1.2,0-1.7l2.4-2.4c0.5-0.5,1.2-0.5,1.7,0
		C52.5,41.3,52.5,42.1,52.1,42.5z M52.1,35.3c-0.2,0.2-0.5,0.3-0.8,0.3c-0.3,0-0.6-0.1-0.9-0.4c-0.5-0.5-0.5-1.2,0-1.7l2.4-2.4
		c0.5-0.5,1.2-0.5,1.7,0c0.5,0.5,0.5,1.2,0,1.7L52.1,35.3z"/>
</g>
</svg>
