<svg xmlns="http://www.w3.org/2000/svg" data-name="Warstwa 1" viewBox="0 0 100 100" x="0px" y="0px"><title>hand_loader</title><path d="M79,71.58,63.63,78H63V73.17L57.83,68h-10l-8.32-8.32-4.35-1.42L24,60H6V80H23.17l14,14H62.41L86,83.32V76.56Zm3,9.11L61.59,90H38.83l-14-14H10V64H24.13l10.7-1.64,2.53.83L46.17,72h10L59,74.83V78H44.83l-5.41-5.41-2.83,2.83L43.17,82H64.37l14-5.93L82,78.63Z"></path><rect x="58" y="10" width="4" height="8"></rect><rect x="58" y="46" width="4" height="8"></rect><rect x="74" y="30" width="8" height="4"></rect><rect x="38" y="30" width="8" height="4"></rect><rect x="68.73" y="17.27" width="8" height="4" transform="translate(7.67 57.07) rotate(-45)"></rect><rect x="43.27" y="42.73" width="8" height="4" transform="translate(-17.78 46.53) rotate(-45)"></rect><rect x="70.73" y="40.73" width="4" height="8" transform="translate(-10.33 64.53) rotate(-45)"></rect><rect x="45.27" y="15.27" width="4" height="8" transform="translate(0.22 39.07) rotate(-45)"></rect></svg>