<?xml version="1.0" encoding="utf-8"?>
<!-- Generator: Adobe Illustrator 21.0.0, SVG Export Plug-In . SVG Version: 6.00 Build 0)  -->
<svg version="1.1" id="Layer_1" xmlns="http://www.w3.org/2000/svg" xmlns:xlink="http://www.w3.org/1999/xlink" x="0px" y="0px"
	 viewBox="0 0 384 384" style="enable-background:new 0 0 384 384;" xml:space="preserve">
<g>
	<path d="M71.1,233.5c18.6,14.9,40.9,26.3,62.2,29.7c-0.8-10.5-0.3-21.8,2.5-32l10.8-40.6l-1.8,0.5c-12.2,3.3-16.9,6.6-36,16.3
		c-1.6,0.8-4.6-0.8-4.4-3.6c2.1-25.3,19.9-35.1,33.3-38.9c4.8-1.1,10.3-2.1,16.3-1.8l10-37.4c1.6-6.2,6.7-10.8,13-12.2
		c15.8-3.6,32.2-5.1,48.3-4.9c3,0,5.9,0,8.9,0.2l-25-93.4c-0.7-1.8-2.1-3.4-4.1-3.9c-15.8-3.8-33.5-5.4-52.2-4.8
		c-17.9,0.5-36.8,3.3-55.3,8.2s-36.1,12-52.1,20.5C29.1,44,14.6,54.4,3,65.4c-1.6,1.3-2.3,3.4-1.8,5.6l28.2,105.3
		C34.7,196.1,50.8,217.1,71.1,233.5z M159.6,316.8c13.5,27.8,35,51.6,60.1,58.5l0.7,0.2c25.3,6.7,55.7-3.3,81.3-20.5
		c25.6-17.2,46.6-42.2,52.9-65.5l28.2-105.1c0.5-2,0-4.1-1.6-5.6c-11.7-11-26.3-21.3-42.7-30.2c-15.9-8.5-33.5-15.6-52.1-20.5
		c-16.8-4.4-33.5-7.1-49.9-8c-3.8-0.2-7.4-0.3-11.2-0.3c-16.4-0.2-32,1.5-46,4.9c-2.1,0.3-3.9,1.8-4.6,3.9L146.5,234
		C139.6,260.5,148.3,293.5,159.6,316.8z M226.5,174.9c7.9,2.1,12.6,10.3,10.5,18.2c-2.1,7.9-10.3,12.6-18.2,10.5
		c-6.9-1.8-11.3-8-11-14.9C208.1,179.2,217.3,172.5,226.5,174.9z M201.8,269.5l87,23.3c1.6,0.5,2.3,2.1,1.8,3.8
		c-3.4,9.7-11.7,16.4-21.2,20.4c-11.7,4.9-25.5,5.7-34.7,3.3c-9.2-2.5-20.7-10-28.4-20c-6.2-8.2-10-18.2-8-28.6
		C198.7,270,200.2,269.2,201.8,269.5z M325.3,216.8c-2.1,8-10.3,12.6-18.2,10.5c-8-2.1-12.6-10.2-10.5-18.2
		c2.1-7.9,10.2-12.6,18.2-10.5C322.7,200.7,327.5,208.9,325.3,216.8z M147,80c-2.1-8,2.5-16.1,10.5-18.2c7.9-2.1,16.1,2.5,18.2,10.5
		c2.1,7.9-2.6,16.1-10.5,18.2C157.2,92.6,149.1,87.9,147,80z M76.9,114.2c-7.9,2.1-16.1-2.6-18.2-10.5c-2.1-7.9,2.6-16.1,10.5-18.2
		c8-2.1,16.1,2.6,18.2,10.5C89.5,103.8,84.9,112,76.9,114.2z"/>
</g>
</svg>
