<?xml version="1.0" encoding="utf-8"?>
<!-- Generator: Adobe Illustrator 22.0.1, SVG Export Plug-In . SVG Version: 6.00 Build 0)  -->
<svg version="1.1"
	 id="svg4" xmlns:cc="http://creativecommons.org/ns#" xmlns:dc="http://purl.org/dc/elements/1.1/" xmlns:rdf="http://www.w3.org/1999/02/22-rdf-syntax-ns#" xmlns:svg="http://www.w3.org/2000/svg"
	 xmlns="http://www.w3.org/2000/svg" xmlns:xlink="http://www.w3.org/1999/xlink" x="0px" y="0px" width="15px" height="15px"
	 viewBox="0 0 15 15" enable-background="new 0 0 15 15" xml:space="preserve">
<path id="path2" d="M11.2883,3.2907h-1.2628V2.2384c0-0.3487-0.2827-0.6314-0.6314-0.6314c0,0,0,0,0,0H2.2384
	c-0.3487,0-0.6314,0.2827-0.6314,0.6314v10.5232c0,0.3487,0.2827,0.6314,0.6314,0.6314c0,0,0,0,0,0h7.1558
	c0.3487,0,0.6314-0.2827,0.6314-0.6314c0,0,0,0,0,0v-1.1079l2.1205-0.9465c0.758-0.3389,1.2463-1.0915,1.2469-1.9218v-3.39
	C13.3917,4.2335,12.4501,3.292,11.2883,3.2907z M11.7093,8.7854c-0.0001,0.1661-0.0977,0.3166-0.2493,0.3844L10.0256,9.81V4.9744
	h1.2628c0.2324,0.0003,0.4207,0.1886,0.4209,0.4209V8.7854z M7.0791,10.8676c-0.2325,0-0.4209-0.1885-0.4209-0.4209V4.5535
	c0-0.2325,0.1885-0.4209,0.4209-0.4209C7.3115,4.1326,7.5,4.321,7.5,4.5535v5.893c0,0.2324-0.1885,0.4209-0.4209,0.4209
	L7.0791,10.8676z M4.5535,10.8676c-0.2324,0-0.4209-0.1885-0.4209-0.4209V4.5535c0-0.2325,0.1885-0.4209,0.4209-0.4209
	c0.2325,0,0.4209,0.1885,0.4209,0.4209v5.893c0,0.2324-0.1885,0.4209-0.4209,0.4209L4.5535,10.8676z"/>
</svg>
