<?xml version="1.0" encoding="utf-8"?>
<!-- Generator: Adobe Illustrator 22.0.1, SVG Export Plug-In . SVG Version: 6.00 Build 0)  -->
<svg version="1.1"
	 id="svg4" xmlns:cc="http://creativecommons.org/ns#" xmlns:dc="http://purl.org/dc/elements/1.1/" xmlns:rdf="http://www.w3.org/1999/02/22-rdf-syntax-ns#" xmlns:svg="http://www.w3.org/2000/svg"
	 xmlns="http://www.w3.org/2000/svg" xmlns:xlink="http://www.w3.org/1999/xlink" x="0px" y="0px" width="15px" height="15px"
	 viewBox="0 0 15 15" enable-background="new 0 0 15 15" xml:space="preserve">
<path d="M12.5458,12.8314h-0.476V1.9782c0-0.3155-0.2557-0.5712-0.5712-0.5712H3.5014c-0.3155,0-0.5712,0.2557-0.5712,0.5712
	v10.8532h-0.476c-0.1577,0-0.2856,0.1279-0.2856,0.2856v0.476h10.6628v-0.476C12.8314,12.9593,12.7035,12.8314,12.5458,12.8314z
	 M5.2151,3.2158c0-0.1577,0.1279-0.2856,0.2856-0.2856h0.952c0.1577,0,0.2856,0.1279,0.2856,0.2856v0.952
	c0,0.1577-0.1279,0.2856-0.2856,0.2856h-0.952c-0.1577,0-0.2856-0.1279-0.2856-0.2856V3.2158z M5.2151,5.5007
	c0-0.1577,0.1279-0.2856,0.2856-0.2856h0.952c0.1577,0,0.2856,0.1279,0.2856,0.2856v0.952c0,0.1577-0.1279,0.2856-0.2856,0.2856
	h-0.952c-0.1577,0-0.2856-0.1279-0.2856-0.2856V5.5007z M6.4528,9.0233h-0.952c-0.1577,0-0.2856-0.1279-0.2856-0.2856v-0.952
	C5.2151,7.6279,5.343,7.5,5.5007,7.5h0.952c0.1577,0,0.2856,0.1279,0.2856,0.2856v0.952C6.7384,8.8954,6.6105,9.0233,6.4528,9.0233z
	 M8.2616,12.8314H6.7384v-1.9993c0-0.1577,0.1279-0.2856,0.2856-0.2856h0.952c0.1577,0,0.2856,0.1279,0.2856,0.2856V12.8314z
	 M9.7849,8.7376c0,0.1577-0.1279,0.2856-0.2856,0.2856h-0.952c-0.1577,0-0.2856-0.1279-0.2856-0.2856v-0.952
	C8.2616,7.6279,8.3895,7.5,8.5472,7.5h0.952c0.1577,0,0.2856,0.1279,0.2856,0.2856V8.7376z M9.7849,6.4528
	c0,0.1577-0.1279,0.2856-0.2856,0.2856h-0.952c-0.1577,0-0.2856-0.1279-0.2856-0.2856v-0.952c0-0.1577,0.1279-0.2856,0.2856-0.2856
	h0.952c0.1577,0,0.2856,0.1279,0.2856,0.2856V6.4528z M9.7849,4.1679c0,0.1577-0.1279,0.2856-0.2856,0.2856h-0.952
	c-0.1577,0-0.2856-0.1279-0.2856-0.2856v-0.952c0-0.1577,0.1279-0.2856,0.2856-0.2856h0.952c0.1577,0,0.2856,0.1279,0.2856,0.2856
	V4.1679z"/>
</svg>
