<?xml version="1.0" encoding="utf-8"?>
<!-- Generator: Adobe Illustrator 22.0.1, SVG Export Plug-In . SVG Version: 6.00 Build 0)  -->
<svg version="1.1"
	 id="svg4" xmlns:cc="http://creativecommons.org/ns#" xmlns:dc="http://purl.org/dc/elements/1.1/" xmlns:rdf="http://www.w3.org/1999/02/22-rdf-syntax-ns#" xmlns:svg="http://www.w3.org/2000/svg"
	 xmlns="http://www.w3.org/2000/svg" xmlns:xlink="http://www.w3.org/1999/xlink" x="0px" y="0px" width="15px" height="15px"
	 viewBox="0 0 15 15" enable-background="new 0 0 15 15" xml:space="preserve">
<path d="M13.3929,5.106v1.8415c0,0.3051-0.2473,0.5525-0.5525,0.5525h-0.1842v3.8672c0,0.3051-0.2473,0.5525-0.5525,0.5525h-0.1842
	v0.9208c0,0.3051-0.2473,0.5525-0.5525,0.5525h-1.1049c-0.3051,0-0.5525-0.2473-0.5525-0.5525v-0.9208H5.2902v0.9208
	c0,0.3051-0.2473,0.5525-0.5525,0.5525H3.6328c-0.3051,0-0.5525-0.2473-0.5525-0.5525v-0.9208H2.8962
	c-0.3051,0-0.5525-0.2473-0.5525-0.5525V7.5H2.1596c-0.3051,0-0.5525-0.2473-0.5525-0.5525V5.106
	c0-0.3051,0.2473-0.5525,0.5525-0.5525h0.1842V3.4487c0-1.017,2.3085-1.8415,5.1562-1.8415s5.1562,0.8245,5.1562,1.8415v1.1049
	h0.1842C13.1455,4.5536,13.3929,4.8009,13.3929,5.106z M4.1853,8.9732c-0.5085,0-0.9208,0.4122-0.9208,0.9208
	s0.4122,0.9208,0.9208,0.9208S5.106,10.4025,5.106,9.894S4.6938,8.9732,4.1853,8.9732z M10.8147,8.9732
	c-0.5085,0-0.9208,0.4122-0.9208,0.9208s0.4122,0.9208,0.9208,0.9208c0.5085,0,0.9208-0.4122,0.9208-0.9208
	S11.3232,8.9732,10.8147,8.9732z M11.5513,7.6842V4.3694c0-0.3051-0.2473-0.5525-0.5525-0.5525H4.0011
	c-0.3051,0-0.5525,0.2473-0.5525,0.5525v3.3147c0,0.3051,0.2473,0.5525,0.5525,0.5525h6.9978
	C11.304,8.2366,11.5513,7.9893,11.5513,7.6842z"/>
</svg>
