<?xml version="1.0" encoding="utf-8"?>
<!-- Generator: Adobe Illustrator 22.0.1, SVG Export Plug-In . SVG Version: 6.00 Build 0)  -->
<svg version="1.1"
	 id="svg4" xmlns:cc="http://creativecommons.org/ns#" xmlns:dc="http://purl.org/dc/elements/1.1/" xmlns:rdf="http://www.w3.org/1999/02/22-rdf-syntax-ns#" xmlns:svg="http://www.w3.org/2000/svg"
	 xmlns="http://www.w3.org/2000/svg" xmlns:xlink="http://www.w3.org/1999/xlink" x="0px" y="0px" width="15px" height="15px"
	 viewBox="0 0 15 15" enable-background="new 0 0 15 15" xml:space="preserve">
<g>
	<g>
		<g>
			<path fill="#010101" d="M13.0657,9.19c-0.0724,0-0.1101-0.0378-0.1825-0.0724L7.486,4.6362L2.0479,9.1176
				C1.9377,9.2277,1.7552,9.19,1.645,9.0798C1.5727,8.9697,1.6073,8.7871,1.7174,8.677l5.5829-4.5915
				c0.1101-0.0724,0.2581-0.0724,0.3682,0l5.6206,4.6293c0.1101,0.1101,0.1479,0.2581,0.0378,0.4028
				C13.2514,9.1522,13.1758,9.19,13.0657,9.19z"/>
		</g>
	</g>
	<g>
		<g>
			<path fill="#010101" d="M7.486,4.5607c-0.1479,0-0.2927-0.1101-0.2927-0.2927V1.9171C7.2311,1.7346,7.3412,1.6245,7.486,1.6245
				s0.2927,0.1101,0.2927,0.2927v2.3886C7.7786,4.4505,7.6307,4.5607,7.486,4.5607z"/>
		</g>
	</g>
	<g>
		<g>
			<path fill="#010101" d="M8.3294,2.9085h-1.69c-0.1479,0-0.2927-0.1101-0.2927-0.2927c0-0.1825,0.1479-0.2581,0.2927-0.2581h1.69
				c0.1479,0,0.2581,0.1101,0.2581,0.2927C8.5874,2.8329,8.4773,2.9085,8.3294,2.9085z"/>
		</g>
	</g>
	<g>
		<g>
			<path fill="#010101" d="M11.7817,7.4622L7.6685,4.0855c-0.1101-0.0724-0.2581-0.0724-0.3682,0L3.1871,7.4622
				C3.1147,7.5346,3.0769,7.6101,3.0769,7.6825v5.4003c0,0.1825,0.1101,0.2927,0.2927,0.2927h2.6435
				c0.1479,0,0.2927-0.1101,0.2927-0.2927V10.732c0-0.6609,0.513-1.1738,1.1738-1.1738s1.1738,0.513,1.1738,1.1738v2.3508
				c0,0.1479,0.1101,0.2927,0.2927,0.2927h2.6813c0.1479,0,0.2927-0.1101,0.2927-0.2927V7.6825
				C11.8918,7.6101,11.8541,7.5378,11.7817,7.4622z"/>
		</g>
	</g>
</g>
</svg>
