<?xml version="1.0" encoding="utf-8"?>
<!-- Generator: Adobe Illustrator 22.0.1, SVG Export Plug-In . SVG Version: 6.00 Build 0)  -->
<svg version="1.1"
	 id="svg4" xmlns:cc="http://creativecommons.org/ns#" xmlns:dc="http://purl.org/dc/elements/1.1/" xmlns:rdf="http://www.w3.org/1999/02/22-rdf-syntax-ns#" xmlns:svg="http://www.w3.org/2000/svg"
	 xmlns="http://www.w3.org/2000/svg" xmlns:xlink="http://www.w3.org/1999/xlink" x="0px" y="0px" width="15px" height="15px"
	 viewBox="0 0 15 15" enable-background="new 0 0 15 15" xml:space="preserve">
<path d="M5.1435,9.857H8.679c0.9759,0,1.7677-0.7918,1.7677-1.7677h0.5892c1.3,0,2.357-1.057,2.357-2.357s-1.057-2.357-2.357-2.357
	H3.8177c-0.2449,0-0.4419,0.197-0.4419,0.4419v4.2721C3.3758,9.0652,4.1676,9.857,5.1435,9.857z M11.036,4.5538
	c0.65,0,1.1785,0.5285,1.1785,1.1785S11.686,6.9108,11.036,6.9108h-0.5892v-2.357H11.036z M11.9144,11.6247H2.4974
	c-0.8765,0-1.1233-1.1785-0.6629-1.1785h10.7409C13.0358,10.4462,12.7927,11.6247,11.9144,11.6247L11.9144,11.6247z"/>
</svg>
