<?xml version="1.0" encoding="utf-8"?>
<!-- Generator: Adobe Illustrator 22.0.1, SVG Export Plug-In . SVG Version: 6.00 Build 0)  -->
<svg version="1.1"
	 id="svg4" xmlns:cc="http://creativecommons.org/ns#" xmlns:dc="http://purl.org/dc/elements/1.1/" xmlns:rdf="http://www.w3.org/1999/02/22-rdf-syntax-ns#" xmlns:svg="http://www.w3.org/2000/svg"
	 xmlns="http://www.w3.org/2000/svg" xmlns:xlink="http://www.w3.org/1999/xlink" x="0px" y="0px" width="15px" height="15px"
	 viewBox="0 0 15 15" enable-background="new 0 0 15 15" xml:space="preserve">
<g>
	<path d="M7.5,1.607c-3.2304,0-5.8734,2.6235-5.893,5.8734c0,3.25,2.6235,5.893,5.8734,5.9126H7.5
		c3.2304,0,5.8734-2.6235,5.893-5.8734C13.393,4.2696,10.7695,1.6266,7.5,1.607z M11.0436,5.6205
		c0-0.137,0.0979-0.2349,0.2349-0.2349l0,0c0.137,0,0.2349,0.0979,0.2349,0.2349v0.4699c0,0.137-0.0979,0.2349-0.2349,0.2349l0,0
		c-0.137,0-0.2349-0.0979-0.2349-0.2349V5.6205z M6.8735,3.0949c0.0979-0.0979,0.2349-0.0979,0.3328,0l0.4699,0.4699
		c0.0979,0.0979,0.0979,0.2349,0,0.3328C7.637,3.9368,7.5783,3.9564,7.5196,3.9564c-0.0587,0-0.1175-0.0196-0.1762-0.0783
		L6.8735,3.4082C6.7756,3.3299,6.7952,3.1928,6.8735,3.0949z M4.9157,4.1913c0-0.137,0.0979-0.2349,0.2349-0.2349l0,0
		c0.137,0,0.2349,0.0979,0.2349,0.2349v0.4699c0,0.137-0.0979,0.2349-0.2349,0.2349l0,0c-0.137,0-0.2349-0.0979-0.2349-0.2349
		V4.1913z M3.2516,8.1852L3.2516,8.1852H2.7817c-0.137,0-0.2349-0.0979-0.2349-0.2349c0-0.137,0.0979-0.2349,0.2349-0.2349h0.4699
		c0.137,0,0.2349,0.0979,0.2349,0.2349C3.4865,8.0873,3.3886,8.1852,3.2516,8.1852z M3.4278,6.247
		C3.3886,6.2862,3.3299,6.3253,3.2711,6.3253S3.1537,6.3057,3.0949,6.247c-0.0979-0.0979-0.0979-0.2349,0-0.3328l0.4699-0.4699
		c0.0979-0.0979,0.2349-0.0979,0.3328,0s0.0979,0.2349,0,0.3328L3.4278,6.247z M4.4262,9.8494c0,0.137-0.0979,0.2349-0.2349,0.2349
		l0,0c-0.137,0-0.2349-0.0979-0.2349-0.2349V9.3795c0-0.137,0.0979-0.2349,0.2349-0.2349l0,0c0.137,0,0.2349,0.0979,0.2349,0.2349
		V9.8494z M5.6009,11.4939L5.6009,11.4939H5.1311c-0.137,0-0.2349-0.0979-0.2349-0.2349s0.0979-0.2349,0.2349-0.2349l0,0h0.4699
		c0.137,0,0.2349,0.0979,0.2349,0.2349S5.738,11.4939,5.6009,11.4939z M7.4804,11.5135L7.4804,11.5135H7.0105
		c-0.137,0-0.2349-0.0979-0.2349-0.2349s0.0979-0.2349,0.2349-0.2349l0,0h0.4699c0.137,0,0.2349,0.0979,0.2349,0.2349
		C7.7154,11.396,7.6175,11.5135,7.4804,11.5135z M9.6144,10.8087c0,0.137-0.0979,0.2349-0.2349,0.2349l0,0
		c-0.137,0-0.2349-0.0979-0.2349-0.2349v-0.4699c0-0.137,0.0979-0.2349,0.2349-0.2349l0,0c0.137,0,0.2349,0.0979,0.2349,0.2349
		V10.8087z M7.5,9.6144c-1.1747,0-2.1144-0.9593-2.1144-2.134S6.3449,5.366,7.5,5.366V5.1506v0.2349
		c0.5678,0,1.0964,0.2154,1.4879,0.6265s0.6265,0.9397,0.6069,1.5075C9.6144,8.6747,8.6551,9.6144,7.5,9.6144z M9.8689,4.4458
		L9.8689,4.4458H9.3991c-0.137,0-0.2349-0.0979-0.2349-0.2349c0-0.137,0.0979-0.2349,0.2349-0.2349l0,0h0.4699
		c0.137,0,0.2349,0.0979,0.2349,0.2349C10.1039,4.3479,10.006,4.4458,9.8689,4.4458z M11.4352,9.5557l-0.4699,0.4699
		c-0.0392,0.0392-0.0979,0.0587-0.1566,0.0587s-0.1175-0.0196-0.1762-0.0783c-0.0979-0.0979-0.0979-0.2349,0-0.3328l0.4699-0.4699
		c0.0979-0.0979,0.2349-0.0979,0.3328,0C11.5135,9.3208,11.5135,9.4774,11.4352,9.5557z M11.4352,8.1461
		c-0.0392,0.0392-0.0979,0.0587-0.1566,0.0587s-0.1175-0.0196-0.1762-0.0783c-0.0979-0.0979-0.0979-0.2349,0-0.3328l0.4699-0.4699
		c0.0979-0.0979,0.2349-0.0979,0.3328,0c0.0979,0.0979,0.0979,0.2349,0,0.3328L11.4352,8.1461z"/>
</g>
</svg>
