<?xml version="1.0" encoding="utf-8"?>
<!-- Generator: Adobe Illustrator 22.0.1, SVG Export Plug-In . SVG Version: 6.00 Build 0)  -->
<svg version="1.1"
	 id="svg4" xmlns:cc="http://creativecommons.org/ns#" xmlns:dc="http://purl.org/dc/elements/1.1/" xmlns:rdf="http://www.w3.org/1999/02/22-rdf-syntax-ns#" xmlns:svg="http://www.w3.org/2000/svg"
	 xmlns="http://www.w3.org/2000/svg" xmlns:xlink="http://www.w3.org/1999/xlink" x="0px" y="0px" width="15px" height="15px"
	 viewBox="0 0 15 15" enable-background="new 0 0 15 15" xml:space="preserve">
<path d="M12.4076,10.8954L9.7097,6.5562V3.0803h0.1842c0.3062,0,0.5525-0.2463,0.5525-0.5525V2.1595
	c0-0.3062-0.2463-0.5525-0.5525-0.5525H5.1058c-0.3062,0-0.5525,0.2463-0.5525,0.5525v0.3683c0,0.3062,0.2463,0.5525,0.5525,0.5525
	H5.29v3.4759l-2.6979,4.3392c-0.6745,1.0842,0.1036,2.4976,1.3835,2.4976h7.0486C12.3063,13.393,13.0821,11.9773,12.4076,10.8954z
	 M5.5179,8.9733l1.1095-1.7863c0.0852-0.1197,0.1335-0.267,0.1335-0.4236V3.0803h1.4733v3.6831
	c0,0.1588,0.0506,0.3039,0.1335,0.4236l1.1095,1.7863H5.5179z"/>
</svg>
