<?xml version="1.0" encoding="utf-8"?>
<!-- Generator: Adobe Illustrator 22.0.1, SVG Export Plug-In . SVG Version: 6.00 Build 0)  -->
<svg version="1.1"
	 id="svg4" xmlns:cc="http://creativecommons.org/ns#" xmlns:dc="http://purl.org/dc/elements/1.1/" xmlns:rdf="http://www.w3.org/1999/02/22-rdf-syntax-ns#" xmlns:svg="http://www.w3.org/2000/svg"
	 xmlns="http://www.w3.org/2000/svg" xmlns:xlink="http://www.w3.org/1999/xlink" x="0px" y="0px" width="15px" height="15px"
	 viewBox="0 0 15 15" enable-background="new 0 0 15 15" xml:space="preserve">
<path d="M7.4977,1.9569c0.0184,0.1082,0.3706,2.1753,0.3706,2.9649c0,1.2039-0.6399,2.0625-1.586,2.4078l0.297,5.4809
	c0.0161,0.3154-0.2348,0.5824-0.5525,0.5824H4.5535c-0.3154,0-0.5686-0.2647-0.5525-0.5824l0.297-5.4809
	C3.3496,6.9844,2.712,6.1235,2.712,4.9218c0-0.7919,0.3522-2.8567,0.3706-2.9649c0.0737-0.4673,1.0428-0.4742,1.1026,0.0253v3.2503
	c0.0299,0.0783,0.3476,0.0737,0.3683,0c0.0322-0.5824,0.1819-3.2043,0.1842-3.2642c0.076-0.4788,1.029-0.4788,1.1026,0
	c0.0046,0.0622,0.1519,2.6818,0.1842,3.2642c0.0207,0.0737,0.3407,0.0783,0.3683,0V1.9823C6.4526,1.485,7.424,1.4896,7.4977,1.9569z
	 M10.2416,8.5336l-0.3453,4.2609c-0.0276,0.3223,0.2279,0.5985,0.5502,0.5985h1.2891c0.3062,0,0.5525-0.2463,0.5525-0.5525V2.1595
	c0-0.3039-0.2463-0.5525-0.5525-0.5525C9.8365,1.607,6.6391,5.716,10.2416,8.5336L10.2416,8.5336z"/>
</svg>
