<?xml version="1.0" encoding="utf-8"?>
<!-- Generator: Adobe Illustrator 22.0.1, SVG Export Plug-In . SVG Version: 6.00 Build 0)  -->
<svg version="1.1"
	 id="svg4" xmlns:cc="http://creativecommons.org/ns#" xmlns:dc="http://purl.org/dc/elements/1.1/" xmlns:rdf="http://www.w3.org/1999/02/22-rdf-syntax-ns#" xmlns:svg="http://www.w3.org/2000/svg"
	 xmlns="http://www.w3.org/2000/svg" xmlns:xlink="http://www.w3.org/1999/xlink" x="0px" y="0px" width="15px" height="15px"
	 viewBox="0 0 15 15" enable-background="new 0 0 15 15" xml:space="preserve">
<path d="M13.393,7.5c0,3.2546-2.6384,5.893-5.893,5.893S1.607,10.7546,1.607,7.5S4.2454,1.607,7.5,1.607S13.393,4.2454,13.393,7.5z
	 M12.2524,7.5l-0.0001-0.0067L11.633,8.0337l-1.4894-1.3901l0.391-2.0045l0.8151,0.073c-0.5914-0.813-1.4258-1.4278-2.3931-1.738
	L9.281,3.7331L7.5,4.7198L5.719,3.7331l0.3244-0.7589c-0.9655,0.3096-1.8007,0.9236-2.3931,1.738l0.8213-0.073l0.3848,2.0045
	L3.367,8.0337L2.7477,7.4933L2.7476,7.5c0,1.0221,0.3207,1.9949,0.9142,2.8037l0.1831-0.8055l2.0231,0.2482l0.8626,1.8493
	L6.02,12.0184c0.9553,0.3118,2.0029,0.3124,2.9601,0l-0.7105-0.4226l0.8626-1.8493l2.0231-0.2482l0.1831,0.8055
	C11.9317,9.4949,12.2524,8.5221,12.2524,7.5z M6.357,9.1532L5.6467,6.9834L7.5,5.6402l1.8533,1.3432L8.6495,9.1532H6.357z"/>
</svg>
