<?xml version="1.0" encoding="utf-8"?>
<!-- Generator: Adobe Illustrator 22.0.1, SVG Export Plug-In . SVG Version: 6.00 Build 0)  -->
<svg version="1.1"
	 id="svg4" xmlns:cc="http://creativecommons.org/ns#" xmlns:dc="http://purl.org/dc/elements/1.1/" xmlns:rdf="http://www.w3.org/1999/02/22-rdf-syntax-ns#" xmlns:svg="http://www.w3.org/2000/svg"
	 xmlns="http://www.w3.org/2000/svg" xmlns:xlink="http://www.w3.org/1999/xlink" x="0px" y="0px" width="15px" height="15px"
	 viewBox="0 0 15 15" enable-background="new 0 0 15 15" xml:space="preserve">
<path d="M11.5922,8.6567v2.9325c0,0.2722-0.219,0.4911-0.4911,0.4911H8.7272c-0.1351,0-0.2456-0.1105-0.2456-0.2456v-2.292
	c0-0.1351-0.1105-0.2456-0.2456-0.2456H6.7627c-0.1351,0-0.2456,0.1105-0.2456,0.2456v2.292c0,0.1351-0.1105,0.2456-0.2456,0.2456
	H3.8977c-0.2722,0-0.4911-0.219-0.4911-0.4911V8.6567c0-0.0737,0.0327-0.1432,0.09-0.1903l3.8472-3.1678
	c0.09-0.0737,0.221-0.0737,0.3131,0l3.8472,3.1678C11.5594,8.5135,11.5922,8.5831,11.5922,8.6567L11.5922,8.6567z M13.303,7.4105
	l-1.7108-1.41V3.1663c0-0.1351-0.1105-0.2456-0.2456-0.2456h-1.146c-0.1351,0-0.2456,0.1105-0.2456,0.2456v1.4857L8.1235,3.1437
	c-0.3622-0.2988-0.8861-0.2988-1.2483,0L1.6958,7.4105C1.5915,7.4964,1.5771,7.6519,1.6631,7.7563l0.5218,0.6344
	c0.0859,0.1044,0.2415,0.1187,0.3458,0.0327l4.8131-3.9639c0.09-0.0737,0.221-0.0737,0.3131,0l4.8131,3.9639
	c0.1044,0.0859,0.2599,0.0716,0.3458-0.0327l0.5218-0.6344C13.4237,7.6499,13.4073,7.4964,13.303,7.4105z"/>
</svg>
