<?xml version="1.0" encoding="utf-8"?>
<!-- Generator: Adobe Illustrator 22.0.1, SVG Export Plug-In . SVG Version: 6.00 Build 0)  -->
<svg version="1.1"
	 id="svg4" xmlns:cc="http://creativecommons.org/ns#" xmlns:dc="http://purl.org/dc/elements/1.1/" xmlns:rdf="http://www.w3.org/1999/02/22-rdf-syntax-ns#" xmlns:svg="http://www.w3.org/2000/svg"
	 xmlns="http://www.w3.org/2000/svg" xmlns:xlink="http://www.w3.org/1999/xlink" x="0px" y="0px" width="15px" height="15px"
	 viewBox="0 0 15 15" enable-background="new 0 0 15 15" xml:space="preserve">
<path d="M12.2881,11.9198H2.7119c-0.6102,0-1.1049-0.4947-1.1049-1.1049V4.1852c0-0.6102,0.4947-1.1049,1.1049-1.1049h9.5761
	c0.6102,0,1.1049,0.4947,1.1049,1.1049v6.6296C13.393,11.4251,12.8983,11.9198,12.2881,11.9198z M4.1852,4.3693
	c-0.7119,0-1.2891,0.5771-1.2891,1.2891s0.5771,1.2891,1.2891,1.2891s1.2891-0.5771,1.2891-1.2891S4.8971,4.3693,4.1852,4.3693z
	 M3.0803,10.4465h8.8395V7.8683L9.9052,5.8538c-0.1079-0.1079-0.2828-0.1079-0.3907,0L6.3951,8.9733L5.1171,7.6953
	c-0.1079-0.1079-0.2828-0.1079-0.3907,0L3.0803,9.3416V10.4465z"/>
</svg>
