<?xml version="1.0" encoding="utf-8"?>
<!-- Generator: Adobe Illustrator 22.0.1, SVG Export Plug-In . SVG Version: 6.00 Build 0)  -->
<svg version="1.1"
	 id="svg4" xmlns:cc="http://creativecommons.org/ns#" xmlns:dc="http://purl.org/dc/elements/1.1/" xmlns:rdf="http://www.w3.org/1999/02/22-rdf-syntax-ns#" xmlns:svg="http://www.w3.org/2000/svg"
	 xmlns="http://www.w3.org/2000/svg" xmlns:xlink="http://www.w3.org/1999/xlink" x="0px" y="0px" width="15px" height="15px"
	 viewBox="0 0 15 15" enable-background="new 0 0 15 15" xml:space="preserve">
<g>
	<path d="M3.7689,8.7779c0.574,0.4598,1.2621,0.8116,1.9194,0.9165C5.6635,9.3703,5.679,9.0216,5.7654,8.7069l0.3333-1.2528
		L6.0431,7.4695c-0.3765,0.1018-0.5215,0.2037-1.1109,0.503C4.8828,7.9972,4.7903,7.9478,4.7964,7.8614
		C4.8612,7.0807,5.4105,6.7783,5.824,6.661c0.1481-0.0339,0.3178-0.0648,0.503-0.0555l0.3086-1.1541
		c0.0494-0.1913,0.2067-0.3333,0.4012-0.3765c0.4876-0.1111,0.9936-0.1574,1.4904-0.1512c0.0926,0,0.1821,0,0.2746,0.0062
		L8.0303,2.0478C8.0087,1.9922,7.9655,1.9429,7.9038,1.9274C7.4163,1.8102,6.8701,1.7608,6.293,1.7793
		c-0.5524,0.0154-1.1356,0.1018-1.7064,0.253s-1.114,0.3703-1.6077,0.6326C2.4728,2.9303,2.0254,3.2512,1.6675,3.5907
		c-0.0494,0.0401-0.071,0.1049-0.0555,0.1728l0.8702,3.2493C2.6456,7.6238,3.1425,8.2718,3.7689,8.7779z M6.4998,11.3483
		c0.4166,0.8578,1.08,1.5923,1.8546,1.8052l0.0216,0.0062c0.7807,0.2067,1.7188-0.1018,2.5087-0.6326s1.438-1.3022,1.6324-2.0212
		l0.8702-3.2432c0.0154-0.0617,0-0.1265-0.0494-0.1728c-0.361-0.3394-0.8116-0.6573-1.3176-0.9319
		c-0.4906-0.2623-1.0337-0.4814-1.6077-0.6326C9.8942,5.3897,9.3788,5.3064,8.8728,5.2786
		C8.7555,5.2724,8.6444,5.2693,8.5272,5.2693C8.0211,5.2632,7.5397,5.3156,7.1077,5.4205C7.0429,5.4298,6.9873,5.4761,6.9657,5.5409
		L6.0956,8.7933C5.8826,9.611,6.1511,10.6293,6.4998,11.3483z M8.5642,6.9696C8.808,7.0344,8.953,7.2874,8.8882,7.5312
		C8.8234,7.775,8.5704,7.92,8.3266,7.8552C8.1137,7.7997,7.9779,7.6084,7.9871,7.3954C7.9964,7.1023,8.2803,6.8955,8.5642,6.9696z
		 M7.802,9.8887l2.6846,0.719c0.0494,0.0154,0.071,0.0648,0.0555,0.1173c-0.1049,0.2993-0.361,0.5061-0.6542,0.6295
		c-0.361,0.1512-0.7869,0.1759-1.0708,0.1018c-0.2839-0.0771-0.6388-0.3086-0.8764-0.6172
		c-0.1913-0.253-0.3086-0.5616-0.2469-0.8825C7.7063,9.9042,7.7526,9.8795,7.802,9.8887z M11.6129,8.2625
		c-0.0648,0.2469-0.3178,0.3888-0.5616,0.324c-0.2469-0.0648-0.3888-0.3147-0.324-0.5616c0.0648-0.2438,0.3148-0.3888,0.5616-0.324
		C11.5327,7.7657,11.6808,8.0188,11.6129,8.2625z M6.111,4.0412C6.0462,3.7943,6.1881,3.5444,6.435,3.4796
		c0.2438-0.0648,0.4968,0.0771,0.5616,0.324c0.0648,0.2438-0.0802,0.4968-0.324,0.5616C6.4257,4.43,6.1758,4.285,6.111,4.0412z
		 M3.9478,5.0965C3.7041,5.1613,3.451,5.0163,3.3862,4.7725c-0.0648-0.2438,0.0802-0.4968,0.324-0.5616
		c0.2469-0.0648,0.4968,0.0802,0.5616,0.324C4.3367,4.7756,4.1947,5.0286,3.9478,5.0965z"/>
</g>
</svg>
