<?xml version="1.0" encoding="utf-8"?>
<!-- Generator: Adobe Illustrator 22.0.1, SVG Export Plug-In . SVG Version: 6.00 Build 0)  -->
<svg version="1.1"
	 id="svg4" xmlns:cc="http://creativecommons.org/ns#" xmlns:dc="http://purl.org/dc/elements/1.1/" xmlns:rdf="http://www.w3.org/1999/02/22-rdf-syntax-ns#" xmlns:svg="http://www.w3.org/2000/svg"
	 xmlns="http://www.w3.org/2000/svg" xmlns:xlink="http://www.w3.org/1999/xlink" x="0px" y="0px" width="15px" height="15px"
	 viewBox="0 0 15 15" enable-background="new 0 0 15 15" xml:space="preserve">
<path d="M11.265,6.3541H8.9776L6.8455,2.3786C6.8008,2.306,6.7216,2.2618,6.6364,2.2618H5.4539
	c-0.1606,0-0.278,0.1517-0.2377,0.3072l0.68,3.7852H3.6484L2.9342,5.1638c-0.0444-0.074-0.1243-0.1192-0.2106-0.1192h-0.871
	c-0.1549,0-0.2712,0.1418-0.2408,0.2937L2.0442,7.5L1.6119,9.6617C1.5815,9.8137,1.6977,9.9554,1.8526,9.9554l0.871,0
	c0.0862,0,0.1662-0.0453,0.2105-0.1192l0.7142-1.1903h2.2479l-0.68,3.7852c-0.0403,0.1555,0.0771,0.3072,0.2377,0.3072h1.1824
	c0.0853,0,0.1644-0.0442,0.2091-0.1169l2.1321-3.9755h2.2874c1.1753,0,2.128-0.513,2.128-1.1459S12.4403,6.3541,11.265,6.3541z"/>
</svg>
