<?xml version="1.0" encoding="utf-8"?>
<!-- Generator: Adobe Illustrator 22.0.1, SVG Export Plug-In . SVG Version: 6.00 Build 0)  -->
<svg version="1.1"
	 id="svg4" xmlns:cc="http://creativecommons.org/ns#" xmlns:dc="http://purl.org/dc/elements/1.1/" xmlns:rdf="http://www.w3.org/1999/02/22-rdf-syntax-ns#" xmlns:svg="http://www.w3.org/2000/svg"
	 xmlns="http://www.w3.org/2000/svg" xmlns:xlink="http://www.w3.org/1999/xlink" x="0px" y="0px" width="15px" height="15px"
	 viewBox="0 0 15 15" enable-background="new 0 0 15 15" xml:space="preserve">
<path d="M13.215,10.1109l-2.8115-6.249c-0.0798-0.178-0.2558-0.2906-0.4481-0.2906H7.989L8.0279,3.956
	c0.0143,0.1453-0.0982,0.2701-0.2435,0.2701H7.2135c-0.1453,0-0.2599-0.1269-0.2435-0.2701l0.0389-0.3847H5.0446
	c-0.1923,0-0.3683,0.1125-0.4481,0.2906l-2.8115,6.249c-0.1125,0.2496-0.178,0.532-0.178,0.8267
	c0,0.2721,0.2189,0.4911,0.4911,0.4911h4.3706c-0.1453,0-0.2599-0.1269-0.2435-0.2701l0.221-2.128
	c0.0123-0.1248,0.1187-0.221,0.2435-0.221h1.6206c0.1248,0,0.2312,0.0941,0.2435,0.221l0.221,2.128
	c0.0143,0.1453-0.0982,0.2701-0.2435,0.2701h4.3706c0.2701,0,0.4911-0.2189,0.4911-0.4911
	C13.393,10.6532,13.3316,10.3708,13.215,10.1109z M6.8186,5.4293l0.0675-0.6548c0.0123-0.1248,0.1187-0.221,0.2435-0.221h0.7407
	c0.1248,0,0.2312,0.0941,0.2435,0.221l0.0675,0.6548c0.0143,0.1453-0.0982,0.2701-0.2435,0.2701H7.0621
	C6.9168,5.6994,6.8023,5.5725,6.8186,5.4293L6.8186,5.4293z M8.1916,8.1548H6.8084c-0.1453,0-0.2599-0.1269-0.2435-0.2701
	l0.1514-1.4732c0.0123-0.1248,0.1187-0.221,0.2435-0.221h1.0783c0.1248,0,0.2312,0.0941,0.2435,0.221l0.1514,1.4732
	C8.4515,8.0279,8.3369,8.1548,8.1916,8.1548z"/>
</svg>
