<?xml version="1.0" encoding="utf-8"?>
<!-- Generator: Adobe Illustrator 22.0.1, SVG Export Plug-In . SVG Version: 6.00 Build 0)  -->
<svg version="1.1"
	 id="svg4" xmlns:cc="http://creativecommons.org/ns#" xmlns:dc="http://purl.org/dc/elements/1.1/" xmlns:rdf="http://www.w3.org/1999/02/22-rdf-syntax-ns#" xmlns:svg="http://www.w3.org/2000/svg"
	 xmlns="http://www.w3.org/2000/svg" xmlns:xlink="http://www.w3.org/1999/xlink" x="0px" y="0px" width="15px" height="15px"
	 viewBox="0 0 15 15" enable-background="new 0 0 15 15" xml:space="preserve">
<path d="M10.7522,9.6473l1.2891-1.2891c0.3112-0.3112,0.1823-0.8434-0.2357-0.9779l-0.7698-0.2468v-2.58
	c0-0.326-0.2633-0.5893-0.5893-0.5893H9.2679V3.2276c0-0.2449-0.197-0.442-0.442-0.442H6.1741c-0.2449,0-0.442,0.197-0.442,0.442
	v0.7366H4.5535c-0.326,0-0.5893,0.2633-0.5893,0.5893v2.58L3.1944,7.3803C2.7746,7.5147,2.6456,8.0469,2.9587,8.3582l1.2891,1.2891
	c-0.3241,0.8048-1.0644,1.3885-2.1988,1.3885c-0.2449,0-0.442,0.197-0.442,0.442v0.2947c0,0.2449,0.197,0.442,0.442,0.442
	c1.1234,0,1.9797-0.3794,2.639-1.0939c0.2652,0.6409,0.8968,1.0939,1.6335,1.0939h2.3572c0.7366,0,1.3683-0.453,1.6335-1.0939
	c0.6593,0.7145,1.5156,1.0939,2.639,1.0939c0.2449,0,0.442-0.197,0.442-0.442v-0.2947c0-0.2449-0.197-0.442-0.442-0.442
	C11.8314,11.0358,11.0818,10.4649,10.7522,9.6473z M5.1428,5.1428h4.7144v1.6114L7.6805,6.0544
	c-0.1179-0.0368-0.2431-0.0368-0.3609,0L5.1428,6.7542V5.1428L5.1428,5.1428z"/>
</svg>
