<?xml version="1.0" encoding="utf-8"?>
<!-- Generator: Adobe Illustrator 22.0.1, SVG Export Plug-In . SVG Version: 6.00 Build 0)  -->
<svg version="1.1"
	 id="svg4" xmlns:cc="http://creativecommons.org/ns#" xmlns:dc="http://purl.org/dc/elements/1.1/" xmlns:rdf="http://www.w3.org/1999/02/22-rdf-syntax-ns#" xmlns:svg="http://www.w3.org/2000/svg"
	 xmlns="http://www.w3.org/2000/svg" xmlns:xlink="http://www.w3.org/1999/xlink" x="0px" y="0px" width="15px" height="15px"
	 viewBox="0 0 15 15" enable-background="new 0 0 15 15" xml:space="preserve">
<path d="M12.4133,8.4273l0.9673-4.2561c0.0698-0.3073-0.1637-0.5999-0.4789-0.5999h-8.037L4.6771,2.6544
	C4.6304,2.4259,4.4293,2.2618,4.196,2.2618H2.0981c-0.2712,0-0.4911,0.2199-0.4911,0.4911v0.3274
	c0,0.2712,0.2199,0.4911,0.4911,0.4911H3.528l1.4374,7.0273c-0.3439,0.1978-0.5756,0.5686-0.5756,0.9937
	c0,0.6328,0.513,1.1459,1.1459,1.1459s1.1459-0.513,1.1459-1.1459c0-0.3207-0.1319-0.6105-0.3442-0.8185h4.2898
	c-0.2123,0.208-0.3442,0.4978-0.3442,0.8185c0,0.6328,0.513,1.1459,1.1459,1.1459s1.1459-0.513,1.1459-1.1459
	c0-0.4537-0.2637-0.8457-0.6462-1.0314l0.1129-0.4967c0.0698-0.3073-0.1637-0.5999-0.4789-0.5999H6.0701L5.9361,8.8096h5.9983
	C12.1637,8.8096,12.3625,8.6509,12.4133,8.4273z"/>
</svg>
