<?xml version="1.0" encoding="utf-8"?>
<!-- Generator: Adobe Illustrator 22.0.1, SVG Export Plug-In . SVG Version: 6.00 Build 0)  -->
<svg version="1.1"
	 id="svg4" xmlns:cc="http://creativecommons.org/ns#" xmlns:dc="http://purl.org/dc/elements/1.1/" xmlns:rdf="http://www.w3.org/1999/02/22-rdf-syntax-ns#" xmlns:svg="http://www.w3.org/2000/svg"
	 xmlns="http://www.w3.org/2000/svg" xmlns:xlink="http://www.w3.org/1999/xlink" x="0px" y="0px" width="15px" height="15px"
	 viewBox="0 0 15 15" enable-background="new 0 0 15 15" xml:space="preserve">
<path d="M13.0247,3.0803H4.5535V1.9753c0-0.2026-0.1657-0.3683-0.3683-0.3683H3.4486c-0.2026,0-0.3683,0.1657-0.3683,0.3683v1.1049
	H1.9753c-0.2026,0-0.3683,0.1657-0.3683,0.3683v0.7366c0,0.2026,0.1657,0.3683,0.3683,0.3683h1.1049v8.4712
	c0,0.2026,0.1657,0.3683,0.3683,0.3683h0.7366c0.2026,0,0.3683-0.1657,0.3683-0.3683V4.5535h8.4712
	c0.2026,0,0.3683-0.1657,0.3683-0.3683V3.4486C13.393,3.246,13.2273,3.0803,13.0247,3.0803z M5.2901,10.4465h7.3663V5.2901H5.2901
	V10.4465z"/>
</svg>
