<?xml version="1.0" encoding="utf-8"?>
<!-- Generator: Adobe Illustrator 22.0.1, SVG Export Plug-In . SVG Version: 6.00 Build 0)  -->
<svg version="1.1"
	 id="svg4" xmlns:cc="http://creativecommons.org/ns#" xmlns:dc="http://purl.org/dc/elements/1.1/" xmlns:rdf="http://www.w3.org/1999/02/22-rdf-syntax-ns#" xmlns:svg="http://www.w3.org/2000/svg"
	 xmlns="http://www.w3.org/2000/svg" xmlns:xlink="http://www.w3.org/1999/xlink" x="0px" y="0px" width="15px" height="15px"
	 viewBox="0 0 15 15" enable-background="new 0 0 15 15" xml:space="preserve">
<path d="M10.4465,5.2901V4.5535c0-1.6247-1.3218-2.9465-2.9465-2.9465c-1.6247,0-2.9465,1.3218-2.9465,2.9465v0.7366H2.3436v6.2613
	c0,1.0171,0.8245,1.8416,1.8416,1.8416h6.6296c1.0171,0,1.8416-0.8245,1.8416-1.8416V5.2901H10.4465z M6.0268,4.5535
	c0-0.8124,0.6609-1.4733,1.4732-1.4733s1.4733,0.6609,1.4733,1.4733v0.7366H6.0268V4.5535z M9.7099,7.3158
	c-0.3051,0-0.5525-0.2473-0.5525-0.5525c0-0.3051,0.2473-0.5525,0.5525-0.5525s0.5525,0.2473,0.5525,0.5525
	C10.2623,7.0685,10.015,7.3158,9.7099,7.3158z M5.2901,7.3158c-0.3051,0-0.5525-0.2473-0.5525-0.5525
	c0-0.3051,0.2473-0.5525,0.5525-0.5525c0.3051,0,0.5525,0.2473,0.5525,0.5525C5.8426,7.0685,5.5952,7.3158,5.2901,7.3158z"/>
</svg>
