<?xml version="1.0" encoding="utf-8"?>
<!-- Generator: Adobe Illustrator 22.0.1, SVG Export Plug-In . SVG Version: 6.00 Build 0)  -->
<svg version="1.1"
	 id="svg4" xmlns:cc="http://creativecommons.org/ns#" xmlns:dc="http://purl.org/dc/elements/1.1/" xmlns:rdf="http://www.w3.org/1999/02/22-rdf-syntax-ns#" xmlns:svg="http://www.w3.org/2000/svg"
	 xmlns="http://www.w3.org/2000/svg" xmlns:xlink="http://www.w3.org/1999/xlink" x="0px" y="0px" width="15px" height="15px"
	 viewBox="0 0 15 15" enable-background="new 0 0 15 15" xml:space="preserve">
<path d="M13.393,5.6584c0-0.8209-0.6713-1.4849-1.4949-1.4731c-0.7875,0.0113-1.434,0.6528-1.4512,1.4401
	c-0.0122,0.559,0.2872,1.0487,0.7363,1.3086v2.5916c0,1.3201-1.1566,2.394-2.5782,2.394c-1.3821,0-2.5135-1.0151-2.5754-2.2845
	C7.7073,9.292,8.9733,7.8044,8.9733,6.0267V2.4491c0-0.2633-0.1859-0.4901-0.4441-0.5417L7.0813,1.6178
	C6.7821,1.558,6.491,1.752,6.4312,2.0512L6.3589,2.4124C6.2991,2.7116,6.4931,3.0026,6.7923,3.0625L7.5,3.204v2.7946
	c0,1.2166-0.9715,2.2262-2.1881,2.238c-1.2285,0.0119-2.2317-0.984-2.2317-2.2098V3.204l0.7077-0.1415
	c0.2992-0.0599,0.4932-0.3509,0.4334-0.6501L4.1491,2.0512C4.0892,1.752,3.7982,1.558,3.499,1.6178L2.0511,1.9074
	C1.7929,1.9591,1.607,2.1858,1.607,2.4491v3.5776c0,1.7793,1.2683,3.2679,2.9482,3.6094c0.0615,2.0815,1.8544,3.7568,4.0497,3.7568
	c2.234,0,4.0514-1.7348,4.0514-3.8673V6.9341C13.0966,6.6793,13.393,6.2037,13.393,5.6584z M11.9198,5.2901
	c0.2031,0,0.3683,0.1652,0.3683,0.3683c0,0.2031-0.1652,0.3683-0.3683,0.3683s-0.3683-0.1652-0.3683-0.3683
	C11.5514,5.4554,11.7167,5.2901,11.9198,5.2901z"/>
</svg>
