<?xml version="1.0" encoding="utf-8"?>
<!-- Generator: Adobe Illustrator 22.0.1, SVG Export Plug-In . SVG Version: 6.00 Build 0)  -->
<svg version="1.1"
	 id="svg4" xmlns:cc="http://creativecommons.org/ns#" xmlns:dc="http://purl.org/dc/elements/1.1/" xmlns:rdf="http://www.w3.org/1999/02/22-rdf-syntax-ns#" xmlns:svg="http://www.w3.org/2000/svg"
	 xmlns="http://www.w3.org/2000/svg" xmlns:xlink="http://www.w3.org/1999/xlink" x="0px" y="0px" width="15px" height="15px"
	 viewBox="0 0 15 15" enable-background="new 0 0 15 15" xml:space="preserve">
<path d="M12.3938,7.2116L11.8754,5.138c-0.2107-0.8468-0.9716-1.4409-1.8442-1.4399h-0.25V2.7476
	c0-0.315-0.2553-0.5703-0.5703-0.5703H5.7891c-0.315,0-0.5703,0.2553-0.5703,0.5703v0.9505h-0.25
	C4.0962,3.6971,3.3353,4.2912,3.1246,5.138L2.6062,7.2116C2.0232,7.4245,1.607,7.9839,1.607,8.6406v1.1406
	c0,0.4802,0.2227,0.908,0.5703,1.1868v1.2845c0,0.315,0.2553,0.5703,0.5703,0.5703h1.1406c0.315,0,0.5703-0.2553,0.5703-0.5703
	v-0.9505h6.0831v0.9505c0,0.315,0.2553,0.5703,0.5703,0.5703h1.1406c0.315,0,0.5703-0.2553,0.5703-0.5703v-1.2845
	c0.3475-0.2787,0.5703-0.7066,0.5703-1.1868V8.6406C13.393,7.9839,12.9768,7.4245,12.3938,7.2116z M4.9688,5.2188h5.0624
	c0.1745-0.0002,0.3267,0.1186,0.3688,0.288l0.4032,1.613H4.1967L4.6,5.5068C4.6421,5.3374,4.7943,5.2186,4.9688,5.2188z
	 M4.5535,9.401c0,0.4724-0.383,0.8554-0.8554,0.8554S2.8426,9.8734,2.8426,9.401s0.383-0.8554,0.8554-0.8554
	S4.5535,8.9285,4.5535,9.401z M12.1574,9.401c0,0.4724-0.383,0.8554-0.8554,0.8554s-0.8554-0.383-0.8554-0.8554
	s0.383-0.8554,0.8554-0.8554S12.1574,8.9285,12.1574,9.401z"/>
</svg>
