<?xml version="1.0" encoding="utf-8"?>
<!-- Generator: Adobe Illustrator 22.0.1, SVG Export Plug-In . SVG Version: 6.00 Build 0)  -->
<svg version="1.1"
	 id="svg4" xmlns:cc="http://creativecommons.org/ns#" xmlns:dc="http://purl.org/dc/elements/1.1/" xmlns:rdf="http://www.w3.org/1999/02/22-rdf-syntax-ns#" xmlns:svg="http://www.w3.org/2000/svg"
	 xmlns="http://www.w3.org/2000/svg" xmlns:xlink="http://www.w3.org/1999/xlink" x="0px" y="0px" width="15px" height="15px"
	 viewBox="0 0 15 15" enable-background="new 0 0 15 15" xml:space="preserve">
<path d="M12.6564,3.8169v5.893c0,1.1928-1.4186,2.2099-2.993,2.2099l1.4498,1.1446c0.1369,0.1081,0.0599,0.3287-0.1141,0.3287H4.001
	c-0.1744,0-0.2507-0.2208-0.1141-0.3287l1.4497-1.1446c-1.57,0-2.993-1.0139-2.993-2.2099v-5.893
	c0-1.2205,1.4732-2.2099,2.9465-2.2099h4.4198C11.2061,1.607,12.6564,2.5964,12.6564,3.8169z M11.5514,6.9475V4.3693
	c0-0.3051-0.2473-0.5525-0.5525-0.5525H4.001c-0.3051,0-0.5525,0.2473-0.5525,0.5525v2.5782C3.4486,7.2527,3.6959,7.5,4.001,7.5
	h6.9979C11.3041,7.5,11.5514,7.2527,11.5514,6.9475z M7.5,8.4208c-0.7119,0-1.2891,0.5771-1.2891,1.2891S6.7881,10.999,7.5,10.999
	s1.2891-0.5771,1.2891-1.2891S8.2119,8.4208,7.5,8.4208z"/>
</svg>
