<?xml version="1.0" encoding="utf-8"?>
<!-- Generator: Adobe Illustrator 22.0.1, SVG Export Plug-In . SVG Version: 6.00 Build 0)  -->
<svg version="1.1"
	 id="svg4" xmlns:cc="http://creativecommons.org/ns#" xmlns:dc="http://purl.org/dc/elements/1.1/" xmlns:rdf="http://www.w3.org/1999/02/22-rdf-syntax-ns#" xmlns:svg="http://www.w3.org/2000/svg"
	 xmlns="http://www.w3.org/2000/svg" xmlns:xlink="http://www.w3.org/1999/xlink" x="0px" y="0px" width="15px" height="15px"
	 viewBox="0 0 15 15" enable-background="new 0 0 15 15" xml:space="preserve">
<path d="M2.8691,5.8152v5.0519H2.3429c-0.1754,0-0.3157,0.1403-0.3157,0.3157v0.5262h10.9458v-0.5262
	c0-0.1754-0.1403-0.3157-0.3157-0.3157h-0.5262V5.8152h-1.684v5.0519H9.605V5.8152H7.921v5.0519H7.079V5.8152H5.395v5.0519h-0.842
	V5.8152H2.8691z M13.1834,12.13H1.8166c-0.3473,0-0.6315,0.2842-0.6315,0.6315v0.421c0,0.0561,0.021,0.1088,0.0631,0.1473
	c0.0421,0.0386,0.0912,0.0631,0.1473,0.0631h12.2087c0.0561,0,0.1088-0.021,0.1473-0.0631
	c0.0386-0.0421,0.0631-0.0947,0.0631-0.1473v-0.421C13.8149,12.4142,13.5307,12.13,13.1834,12.13z M13.8149,4.1312v0.421
	c0,0.0561-0.021,0.1088-0.0631,0.1473c-0.0421,0.0386-0.0912,0.0631-0.1473,0.0631h-0.6315v0.3157
	c0,0.1754-0.1403,0.3157-0.3157,0.3157H2.3429c-0.1754,0-0.3157-0.1403-0.3157-0.3157V4.7627H1.3956
	c-0.1158,0-0.2105-0.0947-0.2105-0.2105v-0.421c0-0.0842,0.0526-0.1614,0.1298-0.193l6.1044-2.3155
	c0.0526-0.021,0.1088-0.021,0.1614,0l6.1044,2.3155C13.7622,3.9698,13.8149,4.047,13.8149,4.1312z"/>
</svg>
