<?xml version="1.0" encoding="utf-8"?>
<!-- Generator: Adobe Illustrator 22.0.1, SVG Export Plug-In . SVG Version: 6.00 Build 0)  -->
<svg version="1.1" id="Layer_1" xmlns="http://www.w3.org/2000/svg" xmlns:xlink="http://www.w3.org/1999/xlink" x="0px" y="0px"
	 width="448px" height="512px" viewBox="0 0 448 512" style="enable-background:new 0 0 448 512;" xml:space="preserve">
<style type="text/css">
	.st0{fill:#FFFFFF;}
</style>
<path class="st0" d="M368,96h-48V56c0-13.3-10.7-24-24-24H24C10.7,32,0,42.7,0,56v400c0,13.3,10.7,24,24,24h272
	c13.3,0,24-10.7,24-24v-42.1l80.6-36c28.8-12.9,47.4-41.5,47.4-73.1V176C448,131.9,412.1,96,368,96z M384,304.9
	c0,6.3-3.7,12-9.5,14.6L320,343.8V160h48c8.8,0,16,7.2,16,16V304.9z M208,384c-8.8,0-16-7.2-16-16V144c0-8.8,7.2-16,16-16
	s16,7.2,16,16v224C224,376.8,216.8,384,208,384z M112,384c-8.8,0-16-7.2-16-16V144c0-8.8,7.2-16,16-16s16,7.2,16,16v224
	C128,376.8,120.8,384,112,384z"/>
</svg>
