<?xml version="1.0" encoding="utf-8"?>
<!-- Generator: Adobe Illustrator 22.0.1, SVG Export Plug-In . SVG Version: 6.00 Build 0)  -->
<svg version="1.1" id="Layer_1" xmlns="http://www.w3.org/2000/svg" xmlns:xlink="http://www.w3.org/1999/xlink" x="0px" y="0px"
	 width="640px" height="512px" viewBox="0 0 640 512" style="enable-background:new 0 0 640 512;" xml:space="preserve">
<style type="text/css">
	.st0{fill:#FFFFFF;}
</style>
<path class="st0" d="M512.5,192c-16.4-0.1-32,3-46.4,8.5L388.4,75.3C384,68.3,376.3,64,368,64h-64c-8.8,0-16,7.2-16,16v16
	c0,8.8,7.2,16,16,16h50.6l14.9,24H256v-16c0-8.8-7.2-16-16-16h-87.5c-13.4,0-24.8,11-24.5,24.4c0.2,13,10.9,23.6,24,23.6h48.7
	l-29.4,47.5c-13.4-4.8-27.9-7.5-43-7.5C58.1,191.8,0.4,249,0,319.2C-0.4,390.3,57.1,448,128,448c59.6,0,109.8-40.8,124-96h52
	c8.3,0,16-4.3,20.4-11.4l86-138.9l14.9,24.1c-25.5,23.4-41.4,57.1-41.3,94.4c0.1,68.8,57.9,127.1,126.7,127.7
	c70.6,0.7,128.2-55.8,129.3-126C641.1,251.1,583.5,192.3,512.5,192L512.5,192z M186.8,265.8c9.7,10.5,16.7,23.7,19.6,38.2h-43.3
	L186.8,265.8z M128,400c-44.1,0-80-35.9-80-80s35.9-80,80-80c5.9,0,11.6,0.7,17.1,1.9l-45.5,73.5c-9.9,16,1.6,36.6,20.4,36.6h81.3
	C188.9,380.2,160.7,400,128,400z M290.6,304H255c-4-31.8-19.6-59.9-42.4-80l24.7-40h127.5L290.6,304L290.6,304z M507.7,399.9
	c-41-2.2-74-35.7-75.6-76.8c-0.8-21.1,6.6-40.5,19.3-55.3l44.4,71.6c4.7,7.5,14.5,9.8,22,5.2l13.6-8.4c7.5-4.7,9.8-14.5,5.2-22
	l-44.5-71.6c6.5-1.7,13.2-2.5,19.9-2.5c44.1,0,80,35.9,80,80C592,365.5,553.8,402.3,507.7,399.9z"/>
</svg>
