<?xml version="1.0" encoding="utf-8"?>
<!-- Generator: Adobe Illustrator 22.0.1, SVG Export Plug-In . SVG Version: 6.00 Build 0)  -->
<svg version="1.1" id="Layer_1" xmlns="http://www.w3.org/2000/svg" xmlns:xlink="http://www.w3.org/1999/xlink" x="0px" y="0px"
	 width="448px" height="512px" viewBox="0 0 448 512" style="enable-background:new 0 0 448 512;" xml:space="preserve">
<style type="text/css">
	.st0{fill:#FFFFFF;}
</style>
<path class="st0" d="M448,360V24c0-13.3-10.7-24-24-24H96C43,0,0,43,0,96v320c0,53,43,96,96,96h328c13.3,0,24-10.7,24-24v-16
	c0-7.5-3.5-14.3-8.9-18.7c-4.2-15.4-4.2-59.3,0-74.7C444.5,374.3,448,367.5,448,360L448,360z M128,134c0-3.3,2.7-6,6-6h212
	c3.3,0,6,2.7,6,6v20c0,3.3-2.7,6-6,6H134c-3.3,0-6-2.7-6-6V134z M128,198c0-3.3,2.7-6,6-6h212c3.3,0,6,2.7,6,6v20c0,3.3-2.7,6-6,6
	H134c-3.3,0-6-2.7-6-6V198z M381.4,448H96c-17.7,0-32-14.3-32-32c0-17.6,14.4-32,32-32h285.4C379.5,401.1,379.5,430.9,381.4,448z"/>
</svg>
