<?xml version="1.0" encoding="utf-8"?>
<!-- Generator: Adobe Illustrator 22.0.1, SVG Export Plug-In . SVG Version: 6.00 Build 0)  -->
<svg version="1.1" id="Layer_1" xmlns="http://www.w3.org/2000/svg" xmlns:xlink="http://www.w3.org/1999/xlink" x="0px" y="0px"
	 width="302px" height="169.9px" viewBox="0 0 302 169.9" style="enable-background:new 0 0 302 169.9;" xml:space="preserve">
<style type="text/css">
	.st0{fill:#FFFFFF;}
</style>
<path d="M295.3,155c-0.1-0.1-0.1-0.3-0.2-0.5C295.2,154.7,295.3,154.9,295.3,155z"/>
<path d="M295.3,155C295.4,155.1,295.4,155.1,295.3,155z"/>
<path class="st0" d="M279.1,109.2c-0.4-0.1-0.9-0.1-1.4,0c-59.9,1.1-103.6,16.6-121.9,33.1l-0.1-70.5c1.1-11.9,11.9-23.2,30.5-32.1
	c20.2-9.6,46.9-15,75.5-15.3l19.7,84.8C280.7,109.2,279.9,109.2,279.1,109.2z M26.1,109.3c-0.6-0.1-1.1-0.1-1.7,0
	c-1.2,0-2.4,0-3.6-0.1l19.9-84.8c28.6,0.3,55.4,5.7,75.5,15.3c18.7,8.9,29.4,20.2,30.5,32.1v70.7C126.9,127.8,81.7,110.5,26.1,109.3
	z M286.9,138.4c1.1,0,2.1,0,3.2,0c3.4,0,5.6-3.8,3.9-6.7l-7.8-13.5c0.8,0,1.7,0,2.5,0c3.3,0,5.5-3.6,4-6.5l-24.2-93.8
	c-0.8-1.5-2.3-2.5-4-2.5c-31,0-60.2,5.8-82.2,16.2c-15,7.1-25.6,16-31.2,25.7c-5.6-9.8-16.2-18.6-31.2-25.7
	C98,21.1,68.8,15.4,37.9,15.4c-1.7,0-3.3,1-4,2.5L9.5,111.6c-1.5,2.9,0.8,6.5,4,6.5c1.3,0,2.6,0,3.9,0l-7.8,13.5
	c-1.6,3,0.5,6.7,3.9,6.7c1.1,0,2.1,0,3.2,0l-8,15.7c-1.6,3.2,1.1,7,4.7,6.5l111.6-10c2.4,10.9,12.3,10.4,26.3,10.4
	c13.9,0,23.9,0.5,26.3-10.4l111.6,10.1c4.9,0.8,6.2-5.6,5.7-6.5L286.9,138.4z"/>
<path d="M294.9,154.1c0,0.1,0,0.1,0.1,0.1C294.9,154.2,294.9,154.1,294.9,154.1z"/>
</svg>
