<?xml version="1.0" encoding="utf-8"?>
<!-- Generator: Adobe Illustrator 22.0.1, SVG Export Plug-In . SVG Version: 6.00 Build 0)  -->
<svg version="1.1" id="Layer_1" xmlns="http://www.w3.org/2000/svg" xmlns:xlink="http://www.w3.org/1999/xlink" x="0px" y="0px"
	 width="448px" height="512px" viewBox="0 0 448 512" style="enable-background:new 0 0 448 512;" xml:space="preserve">
<style type="text/css">
	.st0{fill:#FFFFFF;}
</style>
<path class="st0" d="M436,480h-20V24c0-13.3-10.7-24-24-24H56C42.7,0,32,10.7,32,24v456H12c-6.6,0-12,5.4-12,12v20h448v-20
	C448,485.4,442.6,480,436,480z M128,76c0-6.6,5.4-12,12-12h40c6.6,0,12,5.4,12,12v40c0,6.6-5.4,12-12,12h-40c-6.6,0-12-5.4-12-12V76
	z M128,172c0-6.6,5.4-12,12-12h40c6.6,0,12,5.4,12,12v40c0,6.6-5.4,12-12,12h-40c-6.6,0-12-5.4-12-12V172z M180,320h-40
	c-6.6,0-12-5.4-12-12v-40c0-6.6,5.4-12,12-12h40c6.6,0,12,5.4,12,12v40C192,314.6,186.6,320,180,320z M256,480h-64v-84
	c0-6.6,5.4-12,12-12h40c6.6,0,12,5.4,12,12V480z M320,308c0,6.6-5.4,12-12,12h-40c-6.6,0-12-5.4-12-12v-40c0-6.6,5.4-12,12-12h40
	c6.6,0,12,5.4,12,12V308z M320,212c0,6.6-5.4,12-12,12h-40c-6.6,0-12-5.4-12-12v-40c0-6.6,5.4-12,12-12h40c6.6,0,12,5.4,12,12V212z
	 M320,116c0,6.6-5.4,12-12,12h-40c-6.6,0-12-5.4-12-12V76c0-6.6,5.4-12,12-12h40c6.6,0,12,5.4,12,12V116z"/>
</svg>
