<?xml version="1.0" encoding="utf-8"?>
<!-- Generator: Adobe Illustrator 22.0.1, SVG Export Plug-In . SVG Version: 6.00 Build 0)  -->
<svg version="1.1" id="Layer_1" xmlns="http://www.w3.org/2000/svg" xmlns:xlink="http://www.w3.org/1999/xlink" x="0px" y="0px"
	 width="512px" height="512px" viewBox="0 0 512 512" style="enable-background:new 0 0 512 512;" xml:space="preserve">
<style type="text/css">
	.st0{fill:#FFFFFF;}
</style>
<path class="st0" d="M512,152v80c0,13.3-10.7,24-24,24h-8v168c0,13.3-10.7,24-24,24h-8v40c0,13.3-10.7,24-24,24h-48
	c-13.3,0-24-10.7-24-24v-40H160v40c0,13.3-10.7,24-24,24H88c-13.3,0-24-10.7-24-24v-40h-8c-13.3,0-24-10.7-24-24V256h-8
	c-13.3,0-24-10.7-24-24v-80c0-13.3,10.7-24,24-24h8V80C32,35.8,132.3,0,256,0s224,35.8,224,80v48h8C501.3,128,512,138.7,512,152z
	 M112,320c-22.1,0-40,17.9-40,40s17.9,40,40,40s40-17.9,40-40S134.1,320,112,320z M400,320c-22.1,0-40,17.9-40,40s17.9,40,40,40
	s40-17.9,40-40S422.1,320,400,320z M432,264V120c0-13.3-10.7-24-24-24H104c-13.3,0-24,10.7-24,24v144c0,13.3,10.7,24,24,24h304
	C421.3,288,432,277.3,432,264z"/>
</svg>
