<?xml version="1.0" encoding="utf-8"?>
<!-- Generator: Adobe Illustrator 22.0.1, SVG Export Plug-In . SVG Version: 6.00 Build 0)  -->
<svg version="1.1" id="Layer_1" xmlns="http://www.w3.org/2000/svg" xmlns:xlink="http://www.w3.org/1999/xlink" x="0px" y="0px"
	 width="384px" height="384px" viewBox="0 0 384 384" style="enable-background:new 0 0 384 384;" xml:space="preserve">
<style type="text/css">
	.st0{fill:#FFFFFF;}
</style>
<path class="st0" d="M258,216c0,36.4-29.6,66-66,66s-66-29.6-66-66s29.6-66,66-66S258,179.6,258,216z M282,216c0-49.6-40.4-90-90-90
	s-90,40.4-90,90s40.4,90,90,90S282,265.6,282,216z M384,108v216c0,19.9-16.1,36-36,36H36c-19.9,0-36-16.1-36-36V108
	c0-19.9,16.1-36,36-36h66l9.2-24.7c5.2-14,18.7-23.3,33.7-23.3H239c15,0,28.4,9.3,33.7,23.3L282,72h66C367.9,72,384,88.1,384,108z"
	/>
</svg>
