<?xml version="1.0" encoding="utf-8"?>
<!-- Generator: Adobe Illustrator 22.0.1, SVG Export Plug-In . SVG Version: 6.00 Build 0)  -->
<svg version="1.1" id="Layer_1" xmlns="http://www.w3.org/2000/svg" xmlns:xlink="http://www.w3.org/1999/xlink" x="0px" y="0px"
	 width="512px" height="512px" viewBox="0 0 512 512" style="enable-background:new 0 0 512 512;" xml:space="preserve">
<style type="text/css">
	.st0{fill:#FFFFFF;}
</style>
<path class="st0" d="M500,168h-54.8l-7.9-20.9c-9.2-24.5-25.4-45.4-46.9-60.3S343.7,64,317.5,64H194.5c-26.2,0-51.4,7.9-72.9,22.8
	c-21.5,14.9-37.8,35.8-46.9,60.3L66.8,168H12c-8.2,0-14,8-11.4,15.8l8,24c1.6,4.9,6.2,8.2,11.4,8.2h28.8l-0.1,0.1
	C29.2,227.1,16,248,16,272v48c0,16.2,6,31,16,42.3V424c0,13.3,10.7,24,24,24h48c13.3,0,24-10.7,24-24v-40h256v40
	c0,13.3,10.7,24,24,24h48c13.3,0,24-10.7,24-24v-61.7c10-11.3,16-26.1,16-42.3v-48c0-24-13.2-44.9-32.8-55.9l-0.1-0.1H492
	c5.2,0,9.8-3.3,11.4-8.2l8-24C514,176,508.2,168,500,168z M134.6,169.5c9.3-24.8,33.4-41.5,59.9-41.5h122.9
	c26.5,0,50.6,16.7,59.9,41.5l14.4,38.5H120.2L134.6,169.5z M88,328c-17.7,0-32-14.3-32-32s14.3-32,32-32s48,30.3,48,48
	S105.7,328,88,328z M424,328c-17.7,0-48,1.7-48-16s30.3-48,48-48s32,14.3,32,32S441.7,328,424,328z"/>
</svg>
