<?xml version="1.0" encoding="utf-8"?>
<!-- Generator: Adobe Illustrator 22.0.1, SVG Export Plug-In . SVG Version: 6.00 Build 0)  -->
<svg version="1.1" id="Layer_1" xmlns="http://www.w3.org/2000/svg" xmlns:xlink="http://www.w3.org/1999/xlink" x="0px" y="0px"
	 width="640px" height="512px" viewBox="0 0 640 512" style="enable-background:new 0 0 640 512;" xml:space="preserve">
<style type="text/css">
	.st0{fill:#FFFFFF;}
</style>
<path class="st0" d="M192,384h192c53,0,96-43,96-96h32c70.6,0,128-57.4,128-128S582.6,32,512,32H120c-13.3,0-24,10.7-24,24v232
	C96,341,139,384,192,384z M512,96c35.3,0,64,28.7,64,64s-28.7,64-64,64h-32V96H512z M559.7,480H48.3c-47.6,0-61-64-36-64h583.3
	C620.6,416,607.4,480,559.7,480L559.7,480z"/>
</svg>
