<?xml version="1.0" encoding="utf-8"?>
<!-- Generator: Adobe Illustrator 22.0.1, SVG Export Plug-In . SVG Version: 6.00 Build 0)  -->
<svg version="1.1" id="Layer_1" xmlns="http://www.w3.org/2000/svg" xmlns:xlink="http://www.w3.org/1999/xlink" x="0px" y="0px"
	 width="576px" height="512px" viewBox="0 0 576 512" style="enable-background:new 0 0 576 512;" xml:space="preserve">
<style type="text/css">
	.st0{fill:#FFFFFF;}
</style>
<path class="st0" d="M224,358.9c-37.6,0-73-6.8-104.1-18.7C88.5,364.7,50,379.7,9.1,384c-0.3,0-0.6,0-0.9,0c-3.7,0-7.1-2.5-8-6.1
	c-1-4,2.1-6.4,5.1-9.3c15-14.4,33.2-25.8,40.3-74.3C17,266.9,0,232.6,0,195.4C0,105.2,100.3,32,224,32s224,73.2,224,163.4
	C448,285.8,347.7,358.9,224,358.9z M571.1,466c-13.9-13.1-30.8-23.4-37.5-67.5c68.8-64.6,52.2-156.9-37.7-207.1c0,1.3,0.1,2.7,0.1,4
	c0,122.5-129.6,216.4-284.3,211.2c38.1,31,94,50.5,156.3,50.5c34.9,0,67.8-6.1,96.7-17c29.1,22.3,64.9,35.9,102.9,39.8
	c3.8,0.4,7.4-2,8.3-5.5C576.7,470.9,573.9,468.7,571.1,466z"/>
</svg>
