<?xml version="1.0" encoding="utf-8"?>
<!-- Generator: Adobe Illustrator 22.0.1, SVG Export Plug-In . SVG Version: 6.00 Build 0)  -->
<svg version="1.1" id="Layer_1" xmlns="http://www.w3.org/2000/svg" xmlns:xlink="http://www.w3.org/1999/xlink" x="0px" y="0px"
	 width="64px" height="64px" viewBox="0 0 64 64" style="enable-background:new 0 0 64 64;" xml:space="preserve">
<style type="text/css">
	.st0{fill:#FFFFFF;}
</style>
<g>
	<path class="st0" d="M32,1.9c-16.5,0-30,13.4-30.1,30c0,16.6,13.4,30.1,30,30.2H32c16.5,0,30-13.4,30.1-30C62.1,15.5,48.7,2,32,1.9
		z M50.1,22.4c0-0.7,0.5-1.2,1.2-1.2l0,0c0.7,0,1.2,0.5,1.2,1.2v2.4c0,0.7-0.5,1.2-1.2,1.2l0,0c-0.7,0-1.2-0.5-1.2-1.2V22.4z
		 M28.8,9.5C29.3,9,30,9,30.5,9.5l2.4,2.4c0.5,0.5,0.5,1.2,0,1.7c-0.2,0.2-0.5,0.3-0.8,0.3s-0.6-0.1-0.9-0.4l-2.4-2.4
		C28.3,10.7,28.4,10,28.8,9.5z M18.8,15.1c0-0.7,0.5-1.2,1.2-1.2l0,0c0.7,0,1.2,0.5,1.2,1.2v2.4c0,0.7-0.5,1.2-1.2,1.2l0,0
		c-0.7,0-1.2-0.5-1.2-1.2V15.1z M10.3,35.5L10.3,35.5H7.9c-0.7,0-1.2-0.5-1.2-1.2s0.5-1.2,1.2-1.2h2.4c0.7,0,1.2,0.5,1.2,1.2
		S11,35.5,10.3,35.5z M11.2,25.6C11,25.8,10.7,26,10.4,26s-0.6-0.1-0.9-0.4c-0.5-0.5-0.5-1.2,0-1.7l2.4-2.4c0.5-0.5,1.2-0.5,1.7,0
		s0.5,1.2,0,1.7L11.2,25.6z M16.3,44c0,0.7-0.5,1.2-1.2,1.2l0,0c-0.7,0-1.2-0.5-1.2-1.2v-2.4c0-0.7,0.5-1.2,1.2-1.2l0,0
		c0.7,0,1.2,0.5,1.2,1.2V44z M22.3,52.4L22.3,52.4h-2.4c-0.7,0-1.2-0.5-1.2-1.2s0.5-1.2,1.2-1.2l0,0h2.4c0.7,0,1.2,0.5,1.2,1.2
		S23,52.4,22.3,52.4z M31.9,52.5L31.9,52.5h-2.4c-0.7,0-1.2-0.5-1.2-1.2s0.5-1.2,1.2-1.2l0,0h2.4c0.7,0,1.2,0.5,1.2,1.2
		C33.1,51.9,32.6,52.5,31.9,52.5z M42.8,48.9c0,0.7-0.5,1.2-1.2,1.2l0,0c-0.7,0-1.2-0.5-1.2-1.2v-2.4c0-0.7,0.5-1.2,1.2-1.2l0,0
		c0.7,0,1.2,0.5,1.2,1.2V48.9z M32,42.8c-6,0-10.8-4.9-10.8-10.9S26.1,21.1,32,21.1V20v1.2c2.9,0,5.6,1.1,7.6,3.2s3.2,4.8,3.1,7.7
		C42.8,38,37.9,42.8,32,42.8z M44.1,16.4L44.1,16.4h-2.4c-0.7,0-1.2-0.5-1.2-1.2S41,14,41.7,14l0,0h2.4c0.7,0,1.2,0.5,1.2,1.2
		S44.8,16.4,44.1,16.4z M52.1,42.5l-2.4,2.4c-0.2,0.2-0.5,0.3-0.8,0.3s-0.6-0.1-0.9-0.4c-0.5-0.5-0.5-1.2,0-1.7l2.4-2.4
		c0.5-0.5,1.2-0.5,1.7,0C52.5,41.3,52.5,42.1,52.1,42.5z M52.1,35.3c-0.2,0.2-0.5,0.3-0.8,0.3s-0.6-0.1-0.9-0.4
		c-0.5-0.5-0.5-1.2,0-1.7l2.4-2.4c0.5-0.5,1.2-0.5,1.7,0s0.5,1.2,0,1.7L52.1,35.3z"/>
</g>
</svg>
