<?xml version="1.0" encoding="utf-8"?>
<!-- Generator: Adobe Illustrator 22.0.1, SVG Export Plug-In . SVG Version: 6.00 Build 0)  -->
<svg version="1.1" id="Layer_1" xmlns="http://www.w3.org/2000/svg" xmlns:xlink="http://www.w3.org/1999/xlink" x="0px" y="0px"
	 width="512px" height="512px" viewBox="0 0 512 512" style="enable-background:new 0 0 512 512;" xml:space="preserve">
<style type="text/css">
	.st0{fill:#FFFFFF;}
</style>
<path class="st0" d="M504,256c0,137-111,248-248,248S8,393,8,256S119,8,256,8S504,119,504,256z M456,256l0-0.3l-26.1,22.7L367.3,220
	l16.5-84.4l34.3,3.1c-24.9-34.2-60-60.1-100.7-73.1L331,97.5L256,139l-75-41.5l13.7-31.9c-40.6,13-75.8,38.9-100.7,73.1l34.6-3.1
	l16.2,84.4l-62.7,58.5L56,255.7l0,0.3c0,43,13.5,84,38.5,118l7.7-33.9l85.1,10.4l36.3,77.8l-29.9,17.8c40.2,13.1,84.3,13.1,124.6,0
	l-29.9-17.8l36.3-77.8l85.1-10.4l7.7,33.9C442.5,340,456,299,456,256z M207.9,325.6L178,234.3l78-56.5l78,56.5l-29.6,91.3H207.9z"/>
</svg>
