<?xml version="1.0" encoding="utf-8"?>
<!-- Generator: Adobe Illustrator 22.0.1, SVG Export Plug-In . SVG Version: 6.00 Build 0)  -->
<svg version="1.1" id="Layer_1" xmlns="http://www.w3.org/2000/svg" xmlns:xlink="http://www.w3.org/1999/xlink" x="0px" y="0px"
	 width="640px" height="512px" viewBox="0 0 640 512" style="enable-background:new 0 0 640 512;" xml:space="preserve">
<style type="text/css">
	.st0{fill:#FFFFFF;}
</style>
<path class="st0" d="M480,96H160C71.6,96,0,167.6,0,256s71.6,160,160,160c44.8,0,85.2-18.4,114.2-48h91.5c29,29.6,69.5,48,114.2,48
	c88.4,0,160-71.6,160-160S568.4,96,480,96z M256,276c0,6.6-5.4,12-12,12h-52v52c0,6.6-5.4,12-12,12h-40c-6.6,0-12-5.4-12-12v-52H76
	c-6.6,0-12-5.4-12-12v-40c0-6.6,5.4-12,12-12h52v-52c0-6.6,5.4-12,12-12h40c6.6,0,12,5.4,12,12v52h52c6.6,0,12,5.4,12,12V276z
	 M440,344c-26.5,0-48-21.5-48-48s21.5-48,48-48s48,21.5,48,48S466.5,344,440,344z M520,264c-26.5,0-48-21.5-48-48s21.5-48,48-48
	s48,21.5,48,48S546.5,264,520,264z"/>
</svg>
