<?xml version="1.0" encoding="utf-8"?>
<!-- Generator: Adobe Illustrator 22.0.1, SVG Export Plug-In . SVG Version: 6.00 Build 0)  -->
<svg version="1.1" id="Layer_1" xmlns="http://www.w3.org/2000/svg" xmlns:xlink="http://www.w3.org/1999/xlink" x="0px" y="0px"
	 width="512px" height="512px" viewBox="0 0 512 512" style="enable-background:new 0 0 512 512;" xml:space="preserve">
<style type="text/css">
	.st0{fill:#FFFFFF;}
</style>
<path class="st0" d="M364.2,192h131.4c5.4,20.4,8.4,41.9,8.4,64s-2.9,43.6-8.4,64H364.2C369.4,277,369.2,233.3,364.2,192z
	 M185.2,352c10.7,53.7,33.2,112.5,70.1,152c0.2,0,0.4,0,0.7,0c0.2,0,0.4,0,0.7,0c37-39.5,59.5-98.4,70.1-152H185.2z M359.3,160
	h125.4C452.8,84,384.1,27.3,301,12.1C331.2,55.2,349.8,108.4,359.3,160L359.3,160z M332,192H180c-5.3,41.9-5.3,86,0,128h152
	C337.3,278.1,337.3,234,332,192z M152.7,352H27.3C59.2,428,127.9,484.7,211,499.9C180.8,456.8,162.2,403.6,152.7,352L152.7,352z
	 M359.3,352c-9.6,51.6-28.2,104.8-58.4,147.9C384.1,484.7,452.8,428,484.7,352H359.3z M326.8,160c-10.7-53.7-33.2-112.5-70.1-152
	c-0.2,0-0.4,0-0.7,0s-0.4,0-0.7,0c-37,39.5-59.5,98.4-70.1,152H326.8z M16.4,192C10.9,212.4,8,233.9,8,256s2.9,43.6,8.4,64h131.4
	c-4.9-41.3-5.2-85,0-128H16.4z M152.7,160c9.6-51.6,28.2-104.8,58.4-147.9C127.9,27.3,59.2,84,27.3,160H152.7L152.7,160z"/>
</svg>
