<?xml version="1.0" encoding="utf-8"?>
<!-- Generator: Adobe Illustrator 22.0.1, SVG Export Plug-In . SVG Version: 6.00 Build 0)  -->
<svg version="1.1" id="Layer_1" xmlns="http://www.w3.org/2000/svg" xmlns:xlink="http://www.w3.org/1999/xlink" x="0px" y="0px"
	 width="576px" height="512px" viewBox="0 0 576 512" style="enable-background:new 0 0 576 512;" xml:space="preserve">
<style type="text/css">
	.st0{fill:#FFFFFF;}
</style>
<path class="st0" d="M47.9,257C31.6,232.7,16,200.5,16,165.5C16,76.9,70.3,24,161.1,24C214.2,24,264,65.7,288,89.3
	C312,65.7,361.8,24,414.9,24C505.7,24,560,76.9,560,165.5c0,35-15.5,67.2-31.9,91.5H408l-26.4-58.6c-4.7-8.9-17.6-8.5-21.6,0.7
	l-53.3,134.6L235.4,120c-3.7-10.6-18.7-10.7-22.6-0.2l-48,137.2H47.9z M395.9,289c-4.5,0-8.6-2.5-10.6-6.4l-12.8-32.5l-56.9,142.8
	c-4.4,9.9-18.7,9.4-22.3-0.9l-69.7-209.2L190,281.2c-1.7,4.7-6.2,7.8-11.2,7.8H73.4c5.3,5.7-12.8-12,198.9,192.6
	c8.8,8.5,22.8,8.5,31.6,0c204.3-197.2,191-184,199-192.6L395.9,289L395.9,289z"/>
</svg>
