<?xml version="1.0" encoding="utf-8"?>
<!-- Generator: Adobe Illustrator 22.0.1, SVG Export Plug-In . SVG Version: 6.00 Build 0)  -->
<svg version="1.1" id="Layer_1" xmlns="http://www.w3.org/2000/svg" xmlns:xlink="http://www.w3.org/1999/xlink" x="0px" y="0px"
	 width="640px" height="512px" viewBox="0 0 640 512" style="enable-background:new 0 0 640 512;" xml:space="preserve">
<style type="text/css">
	.st0{fill:#FFFFFF;}
</style>
<path class="st0" d="M304,416H24c-13.3,0-24-10.7-24-24V120c0-13.3,10.7-24,24-24h280V416z M183.3,343.4c1.5,5.1,6.2,8.6,11.5,8.6
	h22.9c8.2,0,14-8.1,11.4-15.9l-57.5-169.1c-1.7-4.9-6.2-8.1-11.4-8.1h-32.5c-5.1,0-9.7,3.3-11.4,8.1L58.9,336.1
	c-2.6,7.8,3.1,15.9,11.4,15.9h22.8c5.4,0,10.1-3.5,11.5-8.7l9.1-31.8H174L183.3,343.4L183.3,343.4z M144.3,203
	c0,0,4.3,21.1,7.8,33.2l10.8,37.5h-38.1l11.1-37.5c3.5-12.1,7.8-33.2,7.8-33.2L144.3,203L144.3,203z M616,416H336V96h280
	c13.3,0,24,10.7,24,24v272C640,405.3,629.3,416,616,416z M580,188h-64v-16c0-6.6-5.4-12-12-12h-16c-6.6,0-12,5.4-12,12v16h-64
	c-6.6,0-12,5.4-12,12v16c0,6.6,5.4,12,12,12h114.1c-6.3,14.3-16.5,29-30,43.2c-6.6-6.9-12.4-13.9-17.4-20.9
	c-3.6-5.1-10.6-6.7-16-3.4l-7.3,4.3l-6.5,3.9c-6,3.6-7.7,11.4-3.7,17.1c6.1,8.7,13.1,17.3,21,25.7c-8.1,6.2-16.8,12.2-26.1,18
	c-5.5,3.4-7.4,10.6-4.2,16.2l7.9,13.9c3.4,5.9,10.9,7.8,16.7,4.3c12.7-7.8,24.6-16.2,35.4-24.9c10.9,8.8,22.8,17.1,35.4,24.9
	c5.8,3.6,13.4,1.6,16.7-4.3l7.9-13.9c3.2-5.6,1.4-12.8-4.1-16.2c-9-5.6-17.7-11.6-26.1-18c21-22.4,35.8-46.3,42.7-69.9H580
	c6.6,0,12-5.4,12-12v-16C592,193.4,586.6,188,580,188L580,188z"/>
</svg>
