<?xml version="1.0" encoding="utf-8"?>
<!-- Generator: Adobe Illustrator 22.0.1, SVG Export Plug-In . SVG Version: 6.00 Build 0)  -->
<svg version="1.1"
	 id="Layer_1" xmlns:cc="http://creativecommons.org/ns#" xmlns:dc="http://purl.org/dc/elements/1.1/" xmlns:inkscape="http://www.inkscape.org/namespaces/inkscape" xmlns:rdf="http://www.w3.org/1999/02/22-rdf-syntax-ns#" xmlns:sodipodi="http://sodipodi.sourceforge.net/DTD/sodipodi-0.dtd" xmlns:svg="http://www.w3.org/2000/svg"
	 xmlns="http://www.w3.org/2000/svg" xmlns:xlink="http://www.w3.org/1999/xlink" x="0px" y="0px" width="679.8px" height="583.5px"
	 viewBox="0 0 679.8 583.5" style="enable-background:new 0 0 679.8 583.5;" xml:space="preserve">
<g transform="translate(-27.590252,-288.25975)">
	<path d="M175.9,607.7c-40.5,3.4-102.3,36.5-134.5,55.4c-12.3,7.2-17.1,22.5-11.3,35.5l53.5,118.8c6.8,15.1,25.2,20.9,39.5,12.5
		l21.3-12.4c16.5-9.7,36.6-10.9,54.2-3.3L300.8,859c48.4,21.2,104.3,15.8,147.8-13.9L691.2,679c17.9-12.4,21.7-37.5,7.9-54.5
		c-7.8-9.4-19.2-14.2-30.7-13.8c-7.1,0.3-14.3,2.4-20.4,6.8l-146.2,88.7c1,3.7,1.5,7.5,1.6,11.5c0.6,14.4-4.7,29-14.4,39.6
		c-9.7,10.7-23.3,17-38.1,17.8l-12.4,0.5c-60.3,2.4-135,2.2-174.4-10.1l-16.7-7.2c-3.4-0.6-5.8-3.7-5.9-7.2
		c-0.2-4.3,3.2-8.1,7.5-8.2c0.7-0.1,3,0.5,3.2,0.5c6.4,1.8,12.1,3.8,16.8,5.3c41.3,13,128,11.4,178.9,9.1
		c19.6-0.9,36.8-15.7,38.2-35.3c1.5-22.5-16.3-40.9-38.1-40.7c-44.4,0.1-116.1-3.3-138.3-27.4C276.6,619.1,232.7,602.9,175.9,607.7
		L175.9,607.7z M448.9,385.4L448.9,385.4c-9.5,0-17.5-8-17.5-17.5v-61.9c0-9.5,8-17.5,17.5-17.5l0,0c9.5,0,17.5,8,17.5,17.5v61.1
		C466.4,377.4,458.4,385.4,448.9,385.4z M393.6,408L393.6,408c-6.6,6.6-18.2,6.6-24.7,0l-43.7-43.7c-6.6-6.6-6.6-17.5,0-24.7l0,0
		c6.6-6.6,18.2-6.6,24.7,0l43.7,43.7C400.9,389.8,400.9,401.4,393.6,408z M371,463.3L371,463.3c0,9.5-8,17.5-17.5,17.5h-61.9
		c-9.5,0-17.5-8-17.5-17.5l0,0c0-9.5,8-17.5,17.5-17.5h61.1C363,445.8,371,453.8,371,463.3z M393.6,518.6L393.6,518.6
		c6.6,6.6,6.6,18.2,0,24.7L349.9,587c-6.6,6.6-17.5,6.6-24.7,0l0,0c-6.6-6.6-6.6-18.2,0-24.7l43.7-43.7
		C375.4,511.3,387.1,511.3,393.6,518.6z M448.9,541.2L448.9,541.2c9.5,0,17.5,8,17.5,17.5v61.1c0,9.5-8,17.5-17.5,17.5l0,0
		c-9.5,0-17.5-8-17.5-17.5v-61.1C431.5,549.2,439.5,541.2,448.9,541.2z M504.2,518.6L504.2,518.6c6.6-6.6,18.2-6.6,24.7,0l43.7,43.7
		c6.6,6.6,6.6,18.2,0,24.7l0,0c-6.6,6.6-18.2,6.6-24.7,0l-43.7-43.7C497,536.8,497,525.2,504.2,518.6z M526.8,463.3L526.8,463.3
		c0-9.5,8-17.5,17.5-17.5h61.1c9.5,0,17.5,8,17.5,17.5l0,0c0,9.5-8,17.5-17.5,17.5h-61.1C534.8,480.8,526.8,472.8,526.8,463.3z
		 M504.2,408L504.2,408c-6.6-6.6-6.6-18.2,0-24.7l43.7-43.7c6.6-6.6,17.5-6.6,24.7,0l0,0c6.6,6.6,6.6,18.2,0,24.7L529,408
		C522.4,415.3,510.8,415.3,504.2,408z"/>
</g>
</svg>
