<?xml version="1.0" encoding="utf-8"?>
<!-- Generator: Adobe Illustrator 22.0.1, SVG Export Plug-In . SVG Version: 6.00 Build 0)  -->
<svg version="1.1" id="Layer_1" xmlns="http://www.w3.org/2000/svg" xmlns:xlink="http://www.w3.org/1999/xlink" x="0px" y="0px"
	 width="384px" height="384px" viewBox="0 0 384 384" style="enable-background:new 0 0 384 384;" xml:space="preserve">
<style type="text/css">
	.st0{fill:#FFFFFF;}
</style>
<path class="st0" d="M384,173.6c0,31.7-27,74.6-63.9,74.6c-25.4,0-37.2-22.1-37.2-43.3c0-31.7,27-74.8,63.9-74.8
	C372,130.1,384,152.4,384,173.6z M204,99.2c0-30.6,22.4-75.2,60-75.2c29.8,0,43.2,29.1,43.2,53.6c0,30.6-22.6,75.2-60,75.2
	C217.4,152.8,204,123.8,204,99.2z M136.8,152.8c-37.4,0-60-44.6-60-75.2C76.8,53.1,90.2,24,120,24c37.6,0,60,44.6,60,75.2
	C180,123.8,166.6,152.8,136.8,152.8z M324.9,327.8c0,27.8-24,32.2-47.5,32.2c-30.9,0-55.8-19.7-85.4-19.7
	c-30.9,0-57.2,19.5-90.7,19.5c-22.4,0-42.2-7.2-42.2-31.9C59.1,276,135.5,199,192,199S324.9,276.2,324.9,327.8z M63.9,248.2
	C27,248.2,0,205.3,0,173.6c0-21.2,12-43.5,37.2-43.5c36.9,0,63.9,43.1,63.9,74.8C101.1,226.1,89.3,248.2,63.9,248.2z"/>
</svg>
