<?xml version="1.0" encoding="utf-8"?>
<!-- Generator: Adobe Illustrator 22.0.1, SVG Export Plug-In . SVG Version: 6.00 Build 0)  -->
<svg version="1.1" id="Layer_1" xmlns="http://www.w3.org/2000/svg" xmlns:xlink="http://www.w3.org/1999/xlink" x="0px" y="0px"
	 width="576px" height="512px" viewBox="0 0 576 512" style="enable-background:new 0 0 576 512;" xml:space="preserve">
<style type="text/css">
	.st0{fill:#FFFFFF;}
</style>
<path class="st0" d="M472,200H360.2L256,5.7C253.8,2.2,250,0,245.8,0H188c-7.9,0-13.6,7.4-11.6,15l33.2,185H99.8l-34.9-58.2
	c-2.2-3.6-6.1-5.8-10.3-5.8H12c-7.6,0-13.3,6.9-11.8,14.4L21.4,256L0.2,361.6C-1.2,369.1,4.4,376,12,376l42.6,0
	c4.2,0,8.1-2.2,10.3-5.8L99.8,312h109.9l-33.2,185c-2,7.6,3.8,15,11.6,15h57.8c4.2,0,8-2.2,10.2-5.7L360.2,312H472
	c57.4,0,104-25.1,104-56S529.4,200,472,200z"/>
</svg>
