<?xml version="1.0" encoding="utf-8"?>
<!-- Generator: Adobe Illustrator 22.0.1, SVG Export Plug-In . SVG Version: 6.00 Build 0)  -->
<svg version="1.1" id="Layer_1" xmlns="http://www.w3.org/2000/svg" xmlns:xlink="http://www.w3.org/1999/xlink" x="0px" y="0px"
	 width="100px" height="100px" viewBox="0 0 100 100" style="enable-background:new 0 0 100 100;" xml:space="preserve">
<style type="text/css">
	.st0{fill:#FFFFFF;}
</style>
<g>
	<path class="st0" d="M89.6,42.9H11c0.3-4.6,3.2-8.9,8.7-7.5C8,32.3,19.3,12.7,27.9,21.2C19.3,12.7,39,1.4,42.1,13
		C39,1.4,61.6,1.4,58.5,13c3.1-11.6,22.7-0.3,14.2,8.2c8.5-8.5,19.9,11.1,8.2,14.2C86.4,33.9,89.3,38.3,89.6,42.9z"/>
	<path class="st0" d="M10.2,46.9c0,0.3,0.1,0.5,0.2,0.8c0.1,0.6,0.3,1.1,0.5,1.7l0,0l10.2,46.3h6.8l-8.6-48.8
		C19.3,46.9,10.2,46.9,10.2,46.9z"/>
	<path class="st0" d="M28.3,46.9c0,0.3,0,0.5,0.1,0.8c0.1,0.6,0.2,1.1,0.3,1.7l0,0l6.1,46.3h6.8l-4.3-48.8
		C37.3,46.9,28.3,46.9,28.3,46.9z"/>
	<path class="st0" d="M45.7,46.9c0,0.3,0,0.5,0,0.8c0,0.6,0.1,1.1,0.2,1.7l0,0L48,95.7h6.8V46.9C54.8,46.9,45.7,46.9,45.7,46.9z"/>
	<path class="st0" d="M63.2,47.7c0,0.6,0,1.1,0.1,1.7l0,0l-1.9,46.3h6.8l4.2-48.8h-9.1C63.2,47.1,63.2,47.4,63.2,47.7z"/>
	<path class="st0" d="M80.7,46.9c-0.1,0.3-0.1,0.5-0.1,0.8c-0.1,0.6-0.1,1.1-0.1,1.7l0,0l-6,46.3h6.8l8.5-48.8
		C89.8,46.9,80.7,46.9,80.7,46.9z"/>
</g>
</svg>
