<?xml version="1.0" encoding="utf-8"?>
<!-- Generator: Adobe Illustrator 22.0.1, SVG Export Plug-In . SVG Version: 6.00 Build 0)  -->
<svg version="1.1" id="Layer_1" xmlns="http://www.w3.org/2000/svg" xmlns:xlink="http://www.w3.org/1999/xlink" x="0px" y="0px"
	 width="576px" height="512px" viewBox="0 0 576 512" style="enable-background:new 0 0 576 512;" xml:space="preserve">
<style type="text/css">
	.st0{fill:#FFFFFF;}
</style>
<path class="st0" d="M567.3,383.6L429.9,78.2C426,69.5,417.4,64,408,64h-96.1l1.9,18.8c0.7,7.1-4.8,13.2-11.9,13.2H274
	c-7.1,0-12.7-6.2-11.9-13.2L264,64h-96c-9.4,0-18,5.5-21.9,14.2L8.7,383.6C3.2,395.8,0,409.6,0,424c0,13.3,10.7,24,24,24h213.6
	c-7.1,0-12.7-6.2-11.9-13.2l10.8-104c0.6-6.1,5.8-10.8,11.9-10.8h79.2c6.1,0,11.3,4.6,11.9,10.8l10.8,104
	c0.7,7.1-4.8,13.2-11.9,13.2H552c13.2,0,24-10.7,24-24C576,410.1,573,396.3,567.3,383.6z M254.7,154.8l3.3-32
	c0.6-6.1,5.8-10.8,11.9-10.8h36.2c6.1,0,11.3,4.6,11.9,10.8l3.3,32c0.7,7.1-4.8,13.2-11.9,13.2h-42.8
	C259.5,168,253.9,161.8,254.7,154.8L254.7,154.8z M321.8,288h-67.6c-7.1,0-12.7-6.2-11.9-13.2l7.4-72c0.6-6.1,5.8-10.8,11.9-10.8
	h52.7c6.1,0,11.3,4.6,11.9,10.8l7.4,72C334.5,281.8,328.9,288,321.8,288z"/>
</svg>
