<?xml version="1.0" encoding="utf-8"?>
<!-- Generator: Adobe Illustrator 22.0.1, SVG Export Plug-In . SVG Version: 6.00 Build 0)  -->
<svg version="1.1" id="Layer_1" xmlns="http://www.w3.org/2000/svg" xmlns:xlink="http://www.w3.org/1999/xlink" x="0px" y="0px"
	 width="640px" height="512px" viewBox="0 0 640 512" style="enable-background:new 0 0 640 512;" xml:space="preserve">
<style type="text/css">
	.st0{fill:#FFFFFF;}
</style>
<path class="st0" d="M496.6,372.6l70-70c16.9-16.9,9.9-45.8-12.8-53.1L512,236.1V96c0-17.7-14.3-32-32-32h-64V24
	c0-13.3-10.7-24-24-24H248c-13.3,0-24,10.7-24,24v40h-64c-17.7,0-32,14.3-32,32v140.1l-41.8,13.4c-22.8,7.3-29.8,36.2-12.8,53.1
	l70,70C125.8,416.3,85.6,448,24,448c-13.3,0-24,10.7-24,24v16c0,13.3,10.7,24,24,24c61,0,107.5-20.6,143.3-59.4
	C181.7,487.4,216,512,256,512h128c40,0,74.3-24.6,88.7-59.4C508.5,491.4,555,512,616,512c13.3,0,24-10.7,24-24v-16
	c0-13.3-10.7-24-24-24C555.2,448,514.5,417,496.6,372.6z M192,128h256v87.5l-118.2-38c-6.4-2-13.2-2-19.6,0l-118.2,38L192,128
	L192,128z"/>
</svg>
