<?xml version="1.0" encoding="utf-8"?>
<!-- Generator: Adobe Illustrator 22.0.1, SVG Export Plug-In . SVG Version: 6.00 Build 0)  -->
<svg version="1.1" id="Layer_1" xmlns="http://www.w3.org/2000/svg" xmlns:xlink="http://www.w3.org/1999/xlink" x="0px" y="0px"
	 width="512px" height="512px" viewBox="0 0 512 512" style="enable-background:new 0 0 512 512;" xml:space="preserve">
<style type="text/css">
	.st0{fill:#FFFFFF;}
</style>
<path class="st0" d="M496,64H128V16c0-8.8-7.2-16-16-16H80c-8.8,0-16,7.2-16,16v48H16C7.2,64,0,71.2,0,80v32c0,8.8,7.2,16,16,16h48
	v368c0,8.8,7.2,16,16,16h32c8.8,0,16-7.2,16-16V128h368c8.8,0,16-7.2,16-16V80C512,71.2,504.8,64,496,64z M160,384h320V160H160V384z
	"/>
</svg>
