<?xml version="1.0" encoding="utf-8"?>
<!-- Generator: Adobe Illustrator 22.0.1, SVG Export Plug-In . SVG Version: 6.00 Build 0)  -->
<svg version="1.1" id="Layer_1" xmlns="http://www.w3.org/2000/svg" xmlns:xlink="http://www.w3.org/1999/xlink" x="0px" y="0px"
	 width="576px" height="512px" viewBox="0 0 576 512" style="enable-background:new 0 0 576 512;" xml:space="preserve">
<style type="text/css">
	.st0{fill:#FFFFFF;}
</style>
<path class="st0" d="M528.1,301.3l47.3-208c3.4-15-8-29.3-23.4-29.3H159.2L150,19.2C147.8,8,137.9,0,126.5,0H24C10.7,0,0,10.7,0,24
	v16c0,13.3,10.7,24,24,24h69.9l70.2,343.4c-16.8,9.7-28.1,27.8-28.1,48.6c0,30.9,25.1,56,56,56s56-25.1,56-56
	c0-15.7-6.4-29.8-16.8-40h209.6c-10.4,10.2-16.8,24.3-16.8,40c0,30.9,25.1,56,56,56s56-25.1,56-56c0-22.2-12.9-41.3-31.6-50.4
	l5.5-24.3c3.4-15-8-29.3-23.4-29.3H218.1l-6.5-32h293.1C515.9,320,525.6,312.2,528.1,301.3z"/>
</svg>
