<?xml version="1.0" encoding="utf-8"?>
<!-- Generator: Adobe Illustrator 22.0.1, SVG Export Plug-In . SVG Version: 6.00 Build 0)  -->
<svg version="1.1" id="Layer_1" xmlns="http://www.w3.org/2000/svg" xmlns:xlink="http://www.w3.org/1999/xlink" x="0px" y="0px"
	 width="448px" height="512px" viewBox="0 0 448 512" style="enable-background:new 0 0 448 512;" xml:space="preserve">
<style type="text/css">
	.st0{fill:#FFFFFF;}
</style>
<path class="st0" d="M352,160v-32C352,57.4,294.6,0,224,0C153.4,0,96,57.4,96,128v32H0v272c0,44.2,35.8,80,80,80h288
	c44.2,0,80-35.8,80-80V160H352z M160,128c0-35.3,28.7-64,64-64s64,28.7,64,64v32H160V128z M320,248c-13.3,0-24-10.7-24-24
	s10.7-24,24-24s24,10.7,24,24S333.3,248,320,248z M128,248c-13.3,0-24-10.7-24-24s10.7-24,24-24s24,10.7,24,24S141.3,248,128,248z"
	/>
</svg>
