<?xml version="1.0" encoding="utf-8"?>
<!-- Generator: Adobe Illustrator 22.0.1, SVG Export Plug-In . SVG Version: 6.00 Build 0)  -->
<svg version="1.1" id="Layer_1" xmlns="http://www.w3.org/2000/svg" xmlns:xlink="http://www.w3.org/1999/xlink" x="0px" y="0px"
	 width="512px" height="512px" viewBox="0 0 512 512" style="enable-background:new 0 0 512 512;" xml:space="preserve">
<style type="text/css">
	.st0{fill:#FFFFFF;}
</style>
<path class="st0" d="M512,176c0-35.7-29.2-64.5-64.9-64c-34.2,0.5-62.3,28.4-63,62.6c-0.5,24.3,12.5,45.6,32,56.8V344
	c0,57.3-50.2,104-112,104c-60,0-109.2-44.1-111.9-99.2C265,333.8,320,269.2,320,192V36.6c0-11.4-8.1-21.3-19.3-23.5L237.8,0.5
	c-13-2.6-25.6,5.8-28.2,18.8L206.4,35c-2.6,13,5.8,25.6,18.8,28.2l30.7,6.1v121.4c0,52.9-42.2,96.7-95.1,97.2
	c-53.4,0.5-96.9-42.7-96.9-96V69.4l30.7-6.1c13-2.6,21.4-15.2,18.8-28.2l-3.1-15.7c-2.6-13-15.2-21.4-28.2-18.8L19.3,13.1
	C8.1,15.3,0,25.1,0,36.6V192c0,77.3,55.1,142,128.1,156.8C130.7,439.2,208.6,512,304,512c97,0,176-75.4,176-168V231.4
	C499.1,220.3,512,199.7,512,176z M448,160c8.8,0,16,7.2,16,16s-7.2,16-16,16s-16-7.2-16-16S439.2,160,448,160z"/>
</svg>
