<?xml version="1.0" encoding="utf-8"?>
<!-- Generator: Adobe Illustrator 22.0.1, SVG Export Plug-In . SVG Version: 6.00 Build 0)  -->
<svg version="1.1" id="Layer_1" xmlns="http://www.w3.org/2000/svg" xmlns:xlink="http://www.w3.org/1999/xlink" x="0px" y="0px"
	 width="512px" height="512px" viewBox="0 0 512 512" style="enable-background:new 0 0 512 512;" xml:space="preserve">
<style type="text/css">
	.st0{fill:#FFFFFF;}
</style>
<path class="st0" d="M192,64c0-35.3,28.7-64,64-64s64,28.7,64,64s-28.7,64-64,64S192,99.3,192,64z M304,144h-11.4
	c-22.7,10.4-49.6,10.9-73.3,0H208c-26.5,0-48,21.5-48,48v104c0,13.3,10.7,24,24,24h16v104c0,13.3,10.7,24,24,24h64
	c13.3,0,24-10.7,24-24V320h16c13.3,0,24-10.7,24-24V192C352,165.5,330.5,144,304,144z M389.6,333.2c-7,11.5-17,20.9-29,27
	C391.1,365.3,480,385.9,480,416c0,46.3-167.7,64-224,64c-70.3,0-224-20.9-224-64c0-30.1,88.4-50.7,119.4-55.8c-12-6.1-22-15.5-29-27
	C75,343.4,0,367.6,0,416c0,77.1,178.7,96,256,96c77.2,0,256-18.9,256-96C512,367.6,437,343.4,389.6,333.2L389.6,333.2z"/>
</svg>
