<?xml version="1.0" encoding="utf-8"?>
<!-- Generator: Adobe Illustrator 22.0.1, SVG Export Plug-In . SVG Version: 6.00 Build 0)  -->
<svg version="1.1" id="Layer_1" xmlns="http://www.w3.org/2000/svg" xmlns:xlink="http://www.w3.org/1999/xlink" x="0px" y="0px"
	 width="512px" height="512px" viewBox="0 0 512 512" style="enable-background:new 0 0 512 512;" xml:space="preserve">
<style type="text/css">
	.st0{fill:#FFFFFF;}
</style>
<path class="st0" d="M462,243.9l-21.8-87.3C431.3,121,399.2,96,362.5,96H352V56c0-13.3-10.7-24-24-24H184c-13.3,0-24,10.7-24,24v40
	h-10.5c-36.7,0-68.7,25-77.6,60.6L50,243.9c-24.5,9-42,32.5-42,60.1v48c0,20.2,9.4,38.2,24,49.9V456c0,13.3,10.7,24,24,24h48
	c13.3,0,24-10.7,24-24v-40h256v40c0,13.3,10.7,24,24,24h48c13.3,0,24-10.7,24-24v-54.1c14.6-11.7,24-29.7,24-49.9v-48
	C504,276.4,486.5,252.8,462,243.9z M149.5,160h213c7.3,0,13.7,5,15.5,12.1l17,67.9H117l17-67.9C135.7,165,142.1,160,149.5,160z
	 M132,336c0,19.9-16.1,36-36,36s-36-16.1-36-36s16.1-36,36-36S132,316.1,132,336z M452,336c0,19.9-16.1,36-36,36s-36-16.1-36-36
	s16.1-36,36-36S452,316.1,452,336z"/>
</svg>
