<?xml version="1.0" encoding="utf-8"?>
<!-- Generator: Adobe Illustrator 22.0.1, SVG Export Plug-In . SVG Version: 6.00 Build 0)  -->
<svg version="1.1" id="Layer_1" xmlns="http://www.w3.org/2000/svg" xmlns:xlink="http://www.w3.org/1999/xlink" x="0px" y="0px"
	 width="448px" height="512px" viewBox="0 0 448 512" style="enable-background:new 0 0 448 512;" xml:space="preserve">
<style type="text/css">
	.st0{fill:#FFFFFF;}
</style>
<path class="st0" d="M448,96v256c0,51.8-61.6,96-130,96l63,49.7c5.9,4.7,2.6,14.3-5,14.3H72c-7.6,0-10.9-9.6-5-14.3l63-49.7
	C61.8,448,0,404,0,352V96C0,43,64,0,128,0h192C385,0,448,43,448,96z M400,232V120c0-13.3-10.7-24-24-24H72c-13.3,0-24,10.7-24,24
	v112c0,13.3,10.7,24,24,24h304C389.3,256,400,245.3,400,232z M224,296c-30.9,0-56,25.1-56,56s25.1,56,56,56s56-25.1,56-56
	S254.9,296,224,296z"/>
</svg>
