<?xml version="1.0" encoding="utf-8"?>
<!-- Generator: Adobe Illustrator 22.0.1, SVG Export Plug-In . SVG Version: 6.00 Build 0)  -->
<svg version="1.1" id="Layer_1" xmlns="http://www.w3.org/2000/svg" xmlns:xlink="http://www.w3.org/1999/xlink" x="0px" y="0px"
	 width="576px" height="512px" viewBox="0 0 576 512" style="enable-background:new 0 0 576 512;" xml:space="preserve">
<style type="text/css">
	.st0{fill:#FFFFFF;}
</style>
<path class="st0" d="M564,0h-79c-10.7,0-16,12.9-8.5,20.5l16.9,16.9l-48.7,48.7C422.5,72.1,396.2,64,368,64
	c-33.7,0-64.6,11.6-89.2,30.9c14,16.7,25,36,32.1,57.1c14.5-14.8,34.7-24,57.1-24c44.1,0,80,35.9,80,80s-35.9,80-80,80
	c-22.3,0-42.6-9.2-57.1-24c-7.1,21.1-18,40.4-32.1,57.1c24.5,19.4,55.5,30.9,89.2,30.9c79.5,0,144-64.5,144-144
	c0-28.2-8.1-54.5-22.1-76.7l48.7-48.7l16.9,16.9c2.4,2.4,5.4,3.5,8.4,3.5c6.2,0,12.1-4.8,12.1-12V12C576,5.4,570.6,0,564,0z M144,64
	C64.5,64,0,128.5,0,208c0,68.5,47.9,125.9,112,140.4V400H76c-6.6,0-12,5.4-12,12v40c0,6.6,5.4,12,12,12h36v36c0,6.6,5.4,12,12,12h40
	c6.6,0,12-5.4,12-12v-36h36c6.6,0,12-5.4,12-12v-40c0-6.6-5.4-12-12-12h-36v-51.6c64.1-14.6,112-71.9,112-140.4
	C288,128.5,223.5,64,144,64z M144,288c-44.1,0-80-35.9-80-80s35.9-80,80-80s80,35.9,80,80S188.1,288,144,288z"/>
</svg>
