<?xml version="1.0" encoding="utf-8"?>
<!-- Generator: Adobe Illustrator 22.0.1, SVG Export Plug-In . SVG Version: 6.00 Build 0)  -->
<svg version="1.1" id="Layer_1" xmlns="http://www.w3.org/2000/svg" xmlns:xlink="http://www.w3.org/1999/xlink" x="0px" y="0px"
	 width="100px" height="125px" viewBox="0 0 100 125" style="enable-background:new 0 0 100 125;" xml:space="preserve">
<style type="text/css">
	.st0{fill:#545454;}
</style>
<path class="st0" d="M50,98.2c-19.7,0-35.7-16-35.7-35.7s16-35.7,35.7-35.7c19.7,0,35.7,16,35.7,35.7S69.7,98.2,50,98.2z M50,32.4
	c-16.6,0-30.1,13.5-30.1,30.1c0,16.6,13.5,30.1,30.1,30.1c16.6,0,30.1-13.5,30.1-30.1C80.1,45.9,66.6,32.4,50,32.4z"/>
<path class="st0" d="M58.4,78.3l-0.6,2.3c-1.7,0.7-3,1.2-4,1.5c-1,0.3-2.2,0.5-3.5,0.5c-2,0-3.6-0.5-4.8-1.5c-1.1-1-1.7-2.3-1.7-3.8
	c0-0.6,0-1.2,0.1-1.8c0.1-0.6,0.2-1.3,0.4-2.1l2.1-7.5c0.2-0.7,0.3-1.4,0.5-2c0.1-0.6,0.2-1.2,0.2-1.8c0-1-0.2-1.6-0.6-2
	c-0.4-0.4-1.1-0.6-2.3-0.6c-0.5,0-1.1,0.1-1.7,0.3c-0.6,0.2-1.1,0.3-1.5,0.5l0.6-2.3c1.4-0.6,2.7-1,4-1.4c1.3-0.4,2.5-0.6,3.6-0.6
	c2,0,3.6,0.5,4.7,1.5c1.1,1,1.7,2.3,1.7,3.8c0,0.3,0,0.9-0.1,1.7c-0.1,0.8-0.2,1.6-0.4,2.3l-2.1,7.4c-0.2,0.6-0.3,1.3-0.5,2.1
	c-0.1,0.8-0.2,1.3-0.2,1.7c0,1,0.2,1.7,0.7,2c0.4,0.4,1.2,0.5,2.3,0.5c0.5,0,1.1-0.1,1.7-0.3C57.6,78.6,58.1,78.4,58.4,78.3z
	 M58.9,47c0,1.3-0.5,2.4-1.5,3.3c-1,0.9-2.2,1.4-3.5,1.4c-1.4,0-2.6-0.5-3.6-1.4c-1-0.9-1.5-2-1.5-3.3c0-1.3,0.5-2.4,1.5-3.3
	c1-0.9,2.2-1.4,3.6-1.4c1.4,0,2.6,0.5,3.5,1.4C58.4,44.6,58.9,45.8,58.9,47z"/>
</svg>
