<?xml version="1.0" encoding="utf-8"?>
<!-- Generator: Adobe Illustrator 22.0.1, SVG Export Plug-In . SVG Version: 6.00 Build 0)  -->
<svg version="1.1" id="Layer_1" xmlns="http://www.w3.org/2000/svg" xmlns:xlink="http://www.w3.org/1999/xlink" x="0px" y="0px"
	 width="100px" height="125px" viewBox="0 0 100 125" style="enable-background:new 0 0 100 125;" xml:space="preserve">
<style type="text/css">
	.st0{opacity:0.5;}
	.st1{fill:#9B9B9B;}
	.st2{opacity:0.5;fill:#9B9B9B;}
	.st3{fill:#545454;}
</style>
<g class="st0">
	<g>
		<g>
			<path class="st1" d="M98.8,62.5c-0.1,0-0.2-0.1-0.4-0.1l-10.8-8.9l-10.9,8.9c-0.2,0.2-0.6,0.1-0.8-0.1c-0.1-0.2-0.1-0.6,0.1-0.8
				l11.1-9.2c0.2-0.1,0.5-0.1,0.7,0L99,61.5c0.2,0.2,0.3,0.5,0.1,0.8C99.2,62.5,99.1,62.5,98.8,62.5z"/>
		</g>
	</g>
	<g>
		<g>
			<path class="st1" d="M87.7,53.3c-0.3,0-0.6-0.2-0.6-0.6V48c0.1-0.4,0.3-0.6,0.6-0.6c0.3,0,0.6,0.2,0.6,0.6v4.8
				C88.3,53.1,88,53.3,87.7,53.3z"/>
		</g>
	</g>
	<g>
		<g>
			<path class="st1" d="M89.4,50H86c-0.3,0-0.6-0.2-0.6-0.6c0-0.4,0.3-0.5,0.6-0.5h3.4c0.3,0,0.5,0.2,0.5,0.6S89.7,50,89.4,50z"/>
		</g>
	</g>
	<g>
		<g>
			<path class="st1" d="M96.3,59.1l-8.2-6.7c-0.2-0.1-0.5-0.1-0.7,0l-8.2,6.7c-0.1,0.1-0.2,0.3-0.2,0.4v10.8c0,0.4,0.2,0.6,0.6,0.6
				h5.2c0.3,0,0.6-0.2,0.6-0.6v-4.7c0-1.3,1-2.3,2.3-2.3s2.3,1,2.3,2.3v4.7c0,0.3,0.2,0.6,0.6,0.6H96c0.3,0,0.6-0.2,0.6-0.6V59.5
				C96.5,59.4,96.4,59.2,96.3,59.1z"/>
		</g>
	</g>
</g>
<path class="st1" d="M29.2,23.3c0,7.6-6.1,13.8-13.8,13.8S1.7,31,1.7,23.3S7.8,9.6,15.4,9.6S29.2,15.7,29.2,23.3z M26.5,23.3
	L26.5,23.3L25,24.6l-3.4-3.2l0.9-4.7l1.8,0.1c-1.4-1.8-3.3-3.3-5.5-4.1l0.7,1.7l-4.1,2.3l-4.2-2.3l0.7-1.7c-2.2,0.7-4.2,2.1-5.5,4.1
	l2-0.1l0.9,4.7l-3.4,3.2l-1.5-1.2l0,0c0,2.3,0.7,4.7,2.1,6.5L6.8,28l4.7,0.6l2,4.3l-1.6,1c2.2,0.7,4.7,0.7,6.9,0l-1.6-1l2-4.3
	l4.7-0.6l0.4,1.8C25.7,28,26.5,25.7,26.5,23.3z M12.7,27.2l-1.6-5l4.3-3.1l4.3,3.1l-1.6,5H12.7z"/>
<path class="st1" d="M90.2,118.1h-1.1V93.4c0-0.7-0.6-1.3-1.3-1.3H69.5c-0.7,0-1.3,0.6-1.3,1.3v24.7h-1.1c-0.4,0-0.7,0.3-0.7,0.7
	v1.1h24.3v-1.1C90.8,118.4,90.5,118.1,90.2,118.1z M73.4,96.2c0-0.4,0.3-0.7,0.7-0.7h2.2c0.4,0,0.7,0.3,0.7,0.7v2.2
	c0,0.4-0.3,0.7-0.7,0.7h-2.2c-0.4,0-0.7-0.3-0.7-0.7V96.2z M73.4,101.4c0-0.4,0.3-0.7,0.7-0.7h2.2c0.4,0,0.7,0.3,0.7,0.7v2.2
	c0,0.4-0.3,0.7-0.7,0.7h-2.2c-0.4,0-0.7-0.3-0.7-0.7V101.4z M76.3,109.4h-2.2c-0.4,0-0.7-0.3-0.7-0.7v-2.2c0-0.4,0.3-0.7,0.7-0.7
	h2.2c0.4,0,0.7,0.3,0.7,0.7v2.2C76.9,109.1,76.6,109.4,76.3,109.4z M80.4,118.1h-3.5v-4.6c0-0.4,0.3-0.7,0.7-0.7h2.2
	c0.4,0,0.7,0.3,0.7,0.7L80.4,118.1L80.4,118.1z M83.9,108.8c0,0.4-0.3,0.7-0.7,0.7H81c-0.4,0-0.7-0.3-0.7-0.7v-2.2
	c0-0.4,0.3-0.7,0.7-0.7h2.2c0.4,0,0.7,0.3,0.7,0.7V108.8z M83.9,103.6c0,0.4-0.3,0.7-0.7,0.7H81c-0.4,0-0.7-0.3-0.7-0.7v-2.2
	c0-0.4,0.3-0.7,0.7-0.7h2.2c0.4,0,0.7,0.3,0.7,0.7V103.6z M83.9,98.4c0,0.4-0.3,0.7-0.7,0.7H81c-0.4,0-0.7-0.3-0.7-0.7v-2.2
	c0-0.4,0.3-0.7,0.7-0.7h2.2c0.4,0,0.7,0.3,0.7,0.7V98.4z"/>
<path class="st2" d="M58.8,13v6.3c0,0.6-0.5,1.1-1.1,1.1h-5.1c-0.3,0-0.5-0.2-0.5-0.5V15c0-0.3-0.2-0.5-0.5-0.5h-3.2
	c-0.3,0-0.5,0.2-0.5,0.5v4.9c0,0.3-0.2,0.5-0.5,0.5h-5.1c-0.6,0-1.1-0.5-1.1-1.1V13c0-0.2,0.1-0.3,0.2-0.4l8.3-6.8
	c0.2-0.2,0.5-0.2,0.7,0l8.3,6.8C58.7,12.7,58.8,12.8,58.8,13L58.8,13z M62.4,10.3l-3.7-3V1.2c0-0.3-0.2-0.5-0.5-0.5h-2.5
	c-0.3,0-0.5,0.2-0.5,0.5v3.2l-3.9-3.2c-0.8-0.6-1.9-0.6-2.7,0l-11.1,9.2c-0.2,0.2-0.3,0.5-0.1,0.7l1.1,1.4c0.2,0.2,0.5,0.3,0.7,0.1
	l10.3-8.5c0.2-0.2,0.5-0.2,0.7,0l10.3,8.5c0.2,0.2,0.6,0.2,0.7-0.1l1.1-1.4C62.7,10.8,62.7,10.5,62.4,10.3z"/>
<path class="st2" d="M7.3,70.1h7.4c2,0,3.7-1.6,3.7-3.7h1.2c2.7,0,4.9-2.2,4.9-4.9c0-2.7-2.2-4.9-4.9-4.9h-15
	c-0.5,0-0.9,0.4-0.9,0.9v8.9C3.6,68.5,5.3,70.1,7.3,70.1z M19.6,59.1c1.4,0,2.5,1.1,2.5,2.5s-1.1,2.5-2.5,2.5h-1.2v-4.9L19.6,59.1
	L19.6,59.1z M21.4,73.8H1.8c-1.8,0-2.3-2.5-1.4-2.5h22.3C23.7,71.3,23.2,73.8,21.4,73.8L21.4,73.8z"/>
<path class="st1" d="M93.8,14.5v-1.8c0-4-3.2-7.1-7.1-7.1s-7.1,3.2-7.1,7.1v1.8h-5.3v15.1c0,2.5,2,4.4,4.4,4.4h16
	c2.5,0,4.4-2,4.4-4.4V14.5H93.8z M83.1,12.8c0-2,1.6-3.5,3.5-3.5c2,0,3.5,1.6,3.5,3.5v1.8H83v-1.8H83.1z M92,19.5
	c-0.7,0-1.3-0.6-1.3-1.3s0.6-1.3,1.3-1.3s1.3,0.6,1.3,1.3S92.7,19.5,92,19.5z M81.4,19.5c-0.7,0-1.3-0.6-1.3-1.3s0.6-1.3,1.3-1.3
	s1.3,0.6,1.3,1.3S82.1,19.5,81.4,19.5z"/>
<path class="st1" d="M23,96.8c0,0.2,0.8,4.9,0.8,6.7c0,2.7-1.4,4.7-3.6,5.5l0.7,12.4c0,0.7-0.5,1.3-1.3,1.3h-3.3
	c-0.7,0-1.3-0.6-1.3-1.3l0.7-12.4c-2.1-0.8-3.6-2.7-3.6-5.5c0-1.8,0.8-6.5,0.8-6.7c0.2-1.1,2.4-1.1,2.5,0.1v7.4
	c0.1,0.2,0.8,0.2,0.8,0c0.1-1.3,0.4-7.3,0.4-7.4c0.2-1.1,2.3-1.1,2.5,0c0,0.1,0.3,6.1,0.4,7.4c0,0.2,0.8,0.2,0.8,0v-7.4
	C20.6,95.8,22.8,95.8,23,96.8z M29.2,111.7l-0.8,9.7c-0.1,0.7,0.5,1.4,1.2,1.4h2.9c0.7,0,1.3-0.6,1.3-1.3V97.3
	c0-0.7-0.6-1.3-1.3-1.3C28.3,96,21,105.4,29.2,111.7L29.2,111.7z"/>
<path class="st3" d="M46.7,109.2C22,73.4,17.4,69.8,17.4,56.6C17.4,38.6,32,24,50,24s32.6,14.6,32.6,32.6c0,13.1-4.6,16.8-29.2,52.6
	C51.7,111.5,48.3,111.5,46.7,109.2L46.7,109.2z M50,70.2c7.5,0,13.6-6.1,13.6-13.6S57.5,43.1,50,43.1s-13.6,6.1-13.6,13.6
	S42.5,70.2,50,70.2z"/>
</svg>
