<?xml version="1.0" encoding="utf-8"?>
<!-- Generator: Adobe Illustrator 22.0.1, SVG Export Plug-In . SVG Version: 6.00 Build 0)  -->
<svg version="1.1" id="Layer_1" xmlns="http://www.w3.org/2000/svg" xmlns:xlink="http://www.w3.org/1999/xlink" x="0px" y="0px"
	 width="100px" height="125px" viewBox="0 0 100 125" style="enable-background:new 0 0 100 125;" xml:space="preserve">
<style type="text/css">
	.st0{fill:#545454;}
</style>
<g>
	<path class="st0" d="M75.7,31.2c-2.7,0-4.8,2.3-4.8,5.1v24.1h-2.3V28.7c0-2.8-2.2-5.1-4.8-5.1c-2.7,0-4.8,2.3-4.8,5.1v31.8h-2.3
		V22.7c0-2.8-2.2-5.1-4.8-5.1c-2.7,0-4.8,2.3-4.8,5.1v37.7h-2.3V28.7c0-2.8-2.2-5.1-4.8-5.1c-2.7,0-4.8,2.3-4.8,5.1v34.2V73v1.3
		L28.3,64c-1.5-2.4-4.5-3-6.7-1.5s-2.9,4.7-1.4,7c0,0,9.5,17.2,13.7,24.8c4,6.8,12.9,13,22.1,13c14.7,0,23.9-10.8,23.9-24.1
		l0.6-22.8V36.3C80.6,33.5,78.4,31.2,75.7,31.2z"/>
</g>
</svg>
