<?xml version="1.0" standalone="no"?>
<!DOCTYPE svg PUBLIC "-//W3C//DTD SVG 1.1//EN"
"http://www.w3.org/Graphics/SVG/1.1/DTD/svg11.dtd">
<svg height="290" version="1.1" width="290" xmlns="http://www.w3.org/2000/svg"><rect fill="black" height="10" width="10" x="0" y="0"/><rect fill="black" height="10" width="10" x="0" y="10"/><rect fill="black" height="10" width="10" x="0" y="20"/><rect fill="black" height="10" width="10" x="0" y="30"/><rect fill="black" height="10" width="10" x="0" y="40"/><rect fill="black" height="10" width="10" x="0" y="50"/><rect fill="black" height="10" width="10" x="0" y="60"/><rect fill="black" height="10" width="10" x="0" y="220"/><rect fill="black" height="10" width="10" x="0" y="230"/><rect fill="black" height="10" width="10" x="0" y="240"/><rect fill="black" height="10" width="10" x="0" y="250"/><rect fill="black" height="10" width="10" x="0" y="260"/><rect fill="black" height="10" width="10" x="0" y="270"/><rect fill="black" height="10" width="10" x="0" y="280"/><rect fill="black" height="10" width="10" x="10" y="0"/><rect fill="black" height="10" width="10" x="10" y="60"/><rect fill="black" height="10" width="10" x="10" y="120"/><rect fill="black" height="10" width="10" x="10" y="150"/><rect fill="black" height="10" width="10" x="10" y="160"/><rect fill="black" height="10" width="10" x="10" y="190"/><rect fill="black" height="10" width="10" x="10" y="220"/><rect fill="black" height="10" width="10" x="10" y="280"/><rect fill="black" height="10" width="10" x="20" y="0"/><rect fill="black" height="10" width="10" x="20" y="20"/><rect fill="black" height="10" width="10" x="20" y="30"/><rect fill="black" height="10" width="10" x="20" y="40"/><rect fill="black" height="10" width="10" x="20" y="60"/><rect fill="black" height="10" width="10" x="20" y="90"/><rect fill="black" height="10" width="10" x="20" y="100"/><rect fill="black" height="10" width="10" x="20" y="110"/><rect fill="black" height="10" width="10" x="20" y="120"/><rect fill="black" height="10" width="10" x="20" y="130"/><rect fill="black" height="10" width="10" x="20" y="140"/><rect fill="black" height="10" width="10" x="20" y="170"/><rect fill="black" height="10" width="10" x="20" y="220"/><rect fill="black" height="10" width="10" x="20" y="240"/><rect fill="black" height="10" width="10" x="20" y="250"/><rect fill="black" height="10" width="10" x="20" y="260"/><rect fill="black" height="10" width="10" x="20" y="280"/><rect fill="black" height="10" width="10" x="30" y="0"/><rect fill="black" height="10" width="10" x="30" y="20"/><rect fill="black" height="10" width="10" x="30" y="30"/><rect fill="black" height="10" width="10" x="30" y="40"/><rect fill="black" height="10" width="10" x="30" y="60"/><rect fill="black" height="10" width="10" x="30" y="90"/><rect fill="black" height="10" width="10" x="30" y="110"/><rect fill="black" height="10" width="10" x="30" y="120"/><rect fill="black" height="10" width="10" x="30" y="140"/><rect fill="black" height="10" width="10" x="30" y="150"/><rect fill="black" height="10" width="10" x="30" y="160"/><rect fill="black" height="10" width="10" x="30" y="180"/><rect fill="black" height="10" width="10" x="30" y="220"/><rect fill="black" height="10" width="10" x="30" y="240"/><rect fill="black" height="10" width="10" x="30" y="250"/><rect fill="black" height="10" width="10" x="30" y="260"/><rect fill="black" height="10" width="10" x="30" y="280"/><rect fill="black" height="10" width="10" x="40" y="0"/><rect fill="black" height="10" width="10" x="40" y="20"/><rect fill="black" height="10" width="10" x="40" y="30"/><rect fill="black" height="10" width="10" x="40" y="40"/><rect fill="black" height="10" width="10" x="40" y="60"/><rect fill="black" height="10" width="10" x="40" y="80"/><rect fill="black" height="10" width="10" x="40" y="90"/><rect fill="black" height="10" width="10" x="40" y="150"/><rect fill="black" height="10" width="10" x="40" y="190"/><rect fill="black" height="10" width="10" x="40" y="220"/><rect fill="black" height="10" width="10" x="40" y="240"/><rect fill="black" height="10" width="10" x="40" y="250"/><rect fill="black" height="10" width="10" x="40" y="260"/><rect fill="black" height="10" width="10" x="40" y="280"/><rect fill="black" height="10" width="10" x="50" y="0"/><rect fill="black" height="10" width="10" x="50" y="60"/><rect fill="black" height="10" width="10" x="50" y="80"/><rect fill="black" height="10" width="10" x="50" y="100"/><rect fill="black" height="10" width="10" x="50" y="120"/><rect fill="black" height="10" width="10" x="50" y="130"/><rect fill="black" height="10" width="10" x="50" y="160"/><rect fill="black" height="10" width="10" x="50" y="170"/><rect fill="black" height="10" width="10" x="50" y="180"/><rect fill="black" height="10" width="10" x="50" y="220"/><rect fill="black" height="10" width="10" x="50" y="280"/><rect fill="black" height="10" width="10" x="60" y="0"/><rect fill="black" height="10" width="10" x="60" y="10"/><rect fill="black" height="10" width="10" x="60" y="20"/><rect fill="black" height="10" width="10" x="60" y="30"/><rect fill="black" height="10" width="10" x="60" y="40"/><rect fill="black" height="10" width="10" x="60" y="50"/><rect fill="black" height="10" width="10" x="60" y="60"/><rect fill="black" height="10" width="10" x="60" y="80"/><rect fill="black" height="10" width="10" x="60" y="100"/><rect fill="black" height="10" width="10" x="60" y="120"/><rect fill="black" height="10" width="10" x="60" y="140"/><rect fill="black" height="10" width="10" x="60" y="160"/><rect fill="black" height="10" width="10" x="60" y="180"/><rect fill="black" height="10" width="10" x="60" y="200"/><rect fill="black" height="10" width="10" x="60" y="220"/><rect fill="black" height="10" width="10" x="60" y="230"/><rect fill="black" height="10" width="10" x="60" y="240"/><rect fill="black" height="10" width="10" x="60" y="250"/><rect fill="black" height="10" width="10" x="60" y="260"/><rect fill="black" height="10" width="10" x="60" y="270"/><rect fill="black" height="10" width="10" x="60" y="280"/><rect fill="black" height="10" width="10" x="70" y="80"/><rect fill="black" height="10" width="10" x="70" y="110"/><rect fill="black" height="10" width="10" x="70" y="120"/><rect fill="black" height="10" width="10" x="70" y="150"/><rect fill="black" height="10" width="10" x="70" y="170"/><rect fill="black" height="10" width="10" x="70" y="180"/><rect fill="black" height="10" width="10" x="80" y="10"/><rect fill="black" height="10" width="10" x="80" y="50"/><rect fill="black" height="10" width="10" x="80" y="60"/><rect fill="black" height="10" width="10" x="80" y="70"/><rect fill="black" height="10" width="10" x="80" y="90"/><rect fill="black" height="10" width="10" x="80" y="100"/><rect fill="black" height="10" width="10" x="80" y="110"/><rect fill="black" height="10" width="10" x="80" y="120"/><rect fill="black" height="10" width="10" x="80" y="150"/><rect fill="black" height="10" width="10" x="80" y="170"/><rect fill="black" height="10" width="10" x="80" y="180"/><rect fill="black" height="10" width="10" x="80" y="210"/><rect fill="black" height="10" width="10" x="80" y="220"/><rect fill="black" height="10" width="10" x="80" y="230"/><rect fill="black" height="10" width="10" x="80" y="240"/><rect fill="black" height="10" width="10" x="90" y="0"/><rect fill="black" height="10" width="10" x="90" y="20"/><rect fill="black" height="10" width="10" x="90" y="30"/><rect fill="black" height="10" width="10" x="90" y="40"/><rect fill="black" height="10" width="10" x="90" y="50"/><rect fill="black" height="10" width="10" x="90" y="70"/><rect fill="black" height="10" width="10" x="90" y="80"/><rect fill="black" height="10" width="10" x="90" y="100"/><rect fill="black" height="10" width="10" x="90" y="120"/><rect fill="black" height="10" width="10" x="90" y="150"/><rect fill="black" height="10" width="10" x="90" y="180"/><rect fill="black" height="10" width="10" x="90" y="190"/><rect fill="black" height="10" width="10" x="90" y="210"/><rect fill="black" height="10" width="10" x="90" y="220"/><rect fill="black" height="10" width="10" x="90" y="270"/><rect fill="black" height="10" width="10" x="90" y="280"/><rect fill="black" height="10" width="10" x="100" y="0"/><rect fill="black" height="10" width="10" x="100" y="40"/><rect fill="black" height="10" width="10" x="100" y="60"/><rect fill="black" height="10" width="10" x="100" y="70"/><rect fill="black" height="10" width="10" x="100" y="90"/><rect fill="black" height="10" width="10" x="100" y="180"/><rect fill="black" height="10" width="10" x="100" y="200"/><rect fill="black" height="10" width="10" x="100" y="210"/><rect fill="black" height="10" width="10" x="100" y="220"/><rect fill="black" height="10" width="10" x="100" y="230"/><rect fill="black" height="10" width="10" x="100" y="240"/><rect fill="black" height="10" width="10" x="100" y="260"/><rect fill="black" height="10" width="10" x="100" y="270"/><rect fill="black" height="10" width="10" x="100" y="280"/><rect fill="black" height="10" width="10" x="110" y="0"/><rect fill="black" height="10" width="10" x="110" y="20"/><rect fill="black" height="10" width="10" x="110" y="40"/><rect fill="black" height="10" width="10" x="110" y="50"/><rect fill="black" height="10" width="10" x="110" y="80"/><rect fill="black" height="10" width="10" x="110" y="90"/><rect fill="black" height="10" width="10" x="110" y="190"/><rect fill="black" height="10" width="10" x="110" y="230"/><rect fill="black" height="10" width="10" x="110" y="240"/><rect fill="black" height="10" width="10" x="110" y="250"/><rect fill="black" height="10" width="10" x="110" y="280"/><rect fill="black" height="10" width="10" x="120" y="10"/><rect fill="black" height="10" width="10" x="120" y="20"/><rect fill="black" height="10" width="10" x="120" y="30"/><rect fill="black" height="10" width="10" x="120" y="40"/><rect fill="black" height="10" width="10" x="120" y="60"/><rect fill="black" height="10" width="10" x="120" y="70"/><rect fill="black" height="10" width="10" x="120" y="190"/><rect fill="black" height="10" width="10" x="120" y="210"/><rect fill="black" height="10" width="10" x="120" y="260"/><rect fill="black" height="10" width="10" x="120" y="280"/><rect fill="black" height="10" width="10" x="130" y="30"/><rect fill="black" height="10" width="10" x="130" y="50"/><rect fill="black" height="10" width="10" x="130" y="70"/><rect fill="black" height="10" width="10" x="130" y="80"/><rect fill="black" height="10" width="10" x="130" y="190"/><rect fill="black" height="10" width="10" x="130" y="210"/><rect fill="black" height="10" width="10" x="130" y="220"/><rect fill="black" height="10" width="10" x="130" y="250"/><rect fill="black" height="10" width="10" x="130" y="280"/><rect fill="black" height="10" width="10" x="140" y="0"/><rect fill="black" height="10" width="10" x="140" y="20"/><rect fill="black" height="10" width="10" x="140" y="40"/><rect fill="black" height="10" width="10" x="140" y="50"/><rect fill="black" height="10" width="10" x="140" y="60"/><rect fill="black" height="10" width="10" x="140" y="200"/><rect fill="black" height="10" width="10" x="140" y="220"/><rect fill="black" height="10" width="10" x="140" y="270"/><rect fill="black" height="10" width="10" x="140" y="280"/><rect fill="black" height="10" width="10" x="150" y="0"/><rect fill="black" height="10" width="10" x="150" y="20"/><rect fill="black" height="10" width="10" x="150" y="200"/><rect fill="black" height="10" width="10" x="150" y="210"/><rect fill="black" height="10" width="10" x="150" y="220"/><rect fill="black" height="10" width="10" x="150" y="230"/><rect fill="black" height="10" width="10" x="150" y="250"/><rect fill="black" height="10" width="10" x="150" y="270"/><rect fill="black" height="10" width="10" x="160" y="40"/><rect fill="black" height="10" width="10" x="160" y="50"/><rect fill="black" height="10" width="10" x="160" y="60"/><rect fill="black" height="10" width="10" x="160" y="70"/><rect fill="black" height="10" width="10" x="160" y="80"/><rect fill="black" height="10" width="10" x="160" y="190"/><rect fill="black" height="10" width="10" x="160" y="200"/><rect fill="black" height="10" width="10" x="160" y="240"/><rect fill="black" height="10" width="10" x="160" y="260"/><rect fill="black" height="10" width="10" x="160" y="280"/><rect fill="black" height="10" width="10" x="170" y="10"/><rect fill="black" height="10" width="10" x="170" y="20"/><rect fill="black" height="10" width="10" x="170" y="70"/><rect fill="black" height="10" width="10" x="170" y="90"/><rect fill="black" height="10" width="10" x="170" y="190"/><rect fill="black" height="10" width="10" x="170" y="200"/><rect fill="black" height="10" width="10" x="170" y="210"/><rect fill="black" height="10" width="10" x="170" y="240"/><rect fill="black" height="10" width="10" x="170" y="270"/><rect fill="black" height="10" width="10" x="180" y="0"/><rect fill="black" height="10" width="10" x="180" y="30"/><rect fill="black" height="10" width="10" x="180" y="40"/><rect fill="black" height="10" width="10" x="180" y="50"/><rect fill="black" height="10" width="10" x="180" y="60"/><rect fill="black" height="10" width="10" x="180" y="70"/><rect fill="black" height="10" width="10" x="180" y="80"/><rect fill="black" height="10" width="10" x="180" y="180"/><rect fill="black" height="10" width="10" x="180" y="190"/><rect fill="black" height="10" width="10" x="180" y="200"/><rect fill="black" height="10" width="10" x="180" y="220"/><rect fill="black" height="10" width="10" x="180" y="240"/><rect fill="black" height="10" width="10" x="180" y="250"/><rect fill="black" height="10" width="10" x="180" y="280"/><rect fill="black" height="10" width="10" x="190" y="0"/><rect fill="black" height="10" width="10" x="190" y="20"/><rect fill="black" height="10" width="10" x="190" y="30"/><rect fill="black" height="10" width="10" x="190" y="50"/><rect fill="black" height="10" width="10" x="190" y="80"/><rect fill="black" height="10" width="10" x="190" y="90"/><rect fill="black" height="10" width="10" x="190" y="120"/><rect fill="black" height="10" width="10" x="190" y="160"/><rect fill="black" height="10" width="10" x="190" y="170"/><rect fill="black" height="10" width="10" x="190" y="180"/><rect fill="black" height="10" width="10" x="190" y="190"/><rect fill="black" height="10" width="10" x="190" y="210"/><rect fill="black" height="10" width="10" x="190" y="230"/><rect fill="black" height="10" width="10" x="190" y="240"/><rect fill="black" height="10" width="10" x="190" y="260"/><rect fill="black" height="10" width="10" x="190" y="280"/><rect fill="black" height="10" width="10" x="200" y="10"/><rect fill="black" height="10" width="10" x="200" y="20"/><rect fill="black" height="10" width="10" x="200" y="30"/><rect fill="black" height="10" width="10" x="200" y="50"/><rect fill="black" height="10" width="10" x="200" y="60"/><rect fill="black" height="10" width="10" x="200" y="70"/><rect fill="black" height="10" width="10" x="200" y="90"/><rect fill="black" height="10" width="10" x="200" y="100"/><rect fill="black" height="10" width="10" x="200" y="120"/><rect fill="black" height="10" width="10" x="200" y="140"/><rect fill="black" height="10" width="10" x="200" y="160"/><rect fill="black" height="10" width="10" x="200" y="190"/><rect fill="black" height="10" width="10" x="200" y="200"/><rect fill="black" height="10" width="10" x="200" y="210"/><rect fill="black" height="10" width="10" x="200" y="220"/><rect fill="black" height="10" width="10" x="200" y="230"/><rect fill="black" height="10" width="10" x="200" y="240"/><rect fill="black" height="10" width="10" x="200" y="280"/><rect fill="black" height="10" width="10" x="210" y="100"/><rect fill="black" height="10" width="10" x="210" y="120"/><rect fill="black" height="10" width="10" x="210" y="140"/><rect fill="black" height="10" width="10" x="210" y="160"/><rect fill="black" height="10" width="10" x="210" y="190"/><rect fill="black" height="10" width="10" x="210" y="200"/><rect fill="black" height="10" width="10" x="210" y="240"/><rect fill="black" height="10" width="10" x="210" y="250"/><rect fill="black" height="10" width="10" x="210" y="260"/><rect fill="black" height="10" width="10" x="220" y="0"/><rect fill="black" height="10" width="10" x="220" y="10"/><rect fill="black" height="10" width="10" x="220" y="20"/><rect fill="black" height="10" width="10" x="220" y="30"/><rect fill="black" height="10" width="10" x="220" y="40"/><rect fill="black" height="10" width="10" x="220" y="50"/><rect fill="black" height="10" width="10" x="220" y="60"/><rect fill="black" height="10" width="10" x="220" y="80"/><rect fill="black" height="10" width="10" x="220" y="90"/><rect fill="black" height="10" width="10" x="220" y="110"/><rect fill="black" height="10" width="10" x="220" y="130"/><rect fill="black" height="10" width="10" x="220" y="150"/><rect fill="black" height="10" width="10" x="220" y="170"/><rect fill="black" height="10" width="10" x="220" y="200"/><rect fill="black" height="10" width="10" x="220" y="220"/><rect fill="black" height="10" width="10" x="220" y="240"/><rect fill="black" height="10" width="10" x="220" y="280"/><rect fill="black" height="10" width="10" x="230" y="0"/><rect fill="black" height="10" width="10" x="230" y="60"/><rect fill="black" height="10" width="10" x="230" y="80"/><rect fill="black" height="10" width="10" x="230" y="90"/><rect fill="black" height="10" width="10" x="230" y="130"/><rect fill="black" height="10" width="10" x="230" y="150"/><rect fill="black" height="10" width="10" x="230" y="170"/><rect fill="black" height="10" width="10" x="230" y="200"/><rect fill="black" height="10" width="10" x="230" y="240"/><rect fill="black" height="10" width="10" x="240" y="0"/><rect fill="black" height="10" width="10" x="240" y="20"/><rect fill="black" height="10" width="10" x="240" y="30"/><rect fill="black" height="10" width="10" x="240" y="40"/><rect fill="black" height="10" width="10" x="240" y="60"/><rect fill="black" height="10" width="10" x="240" y="90"/><rect fill="black" height="10" width="10" x="240" y="100"/><rect fill="black" height="10" width="10" x="240" y="130"/><rect fill="black" height="10" width="10" x="240" y="140"/><rect fill="black" height="10" width="10" x="240" y="150"/><rect fill="black" height="10" width="10" x="240" y="170"/><rect fill="black" height="10" width="10" x="240" y="180"/><rect fill="black" height="10" width="10" x="240" y="190"/><rect fill="black" height="10" width="10" x="240" y="200"/><rect fill="black" height="10" width="10" x="240" y="210"/><rect fill="black" height="10" width="10" x="240" y="220"/><rect fill="black" height="10" width="10" x="240" y="230"/><rect fill="black" height="10" width="10" x="240" y="240"/><rect fill="black" height="10" width="10" x="240" y="270"/><rect fill="black" height="10" width="10" x="240" y="280"/><rect fill="black" height="10" width="10" x="250" y="0"/><rect fill="black" height="10" width="10" x="250" y="20"/><rect fill="black" height="10" width="10" x="250" y="30"/><rect fill="black" height="10" width="10" x="250" y="40"/><rect fill="black" height="10" width="10" x="250" y="60"/><rect fill="black" height="10" width="10" x="250" y="100"/><rect fill="black" height="10" width="10" x="250" y="110"/><rect fill="black" height="10" width="10" x="250" y="130"/><rect fill="black" height="10" width="10" x="250" y="150"/><rect fill="black" height="10" width="10" x="250" y="160"/><rect fill="black" height="10" width="10" x="250" y="170"/><rect fill="black" height="10" width="10" x="250" y="190"/><rect fill="black" height="10" width="10" x="250" y="200"/><rect fill="black" height="10" width="10" x="250" y="210"/><rect fill="black" height="10" width="10" x="250" y="220"/><rect fill="black" height="10" width="10" x="250" y="230"/><rect fill="black" height="10" width="10" x="250" y="240"/><rect fill="black" height="10" width="10" x="250" y="270"/><rect fill="black" height="10" width="10" x="250" y="280"/><rect fill="black" height="10" width="10" x="260" y="0"/><rect fill="black" height="10" width="10" x="260" y="20"/><rect fill="black" height="10" width="10" x="260" y="30"/><rect fill="black" height="10" width="10" x="260" y="40"/><rect fill="black" height="10" width="10" x="260" y="60"/><rect fill="black" height="10" width="10" x="260" y="100"/><rect fill="black" height="10" width="10" x="260" y="130"/><rect fill="black" height="10" width="10" x="260" y="140"/><rect fill="black" height="10" width="10" x="260" y="170"/><rect fill="black" height="10" width="10" x="260" y="180"/><rect fill="black" height="10" width="10" x="260" y="200"/><rect fill="black" height="10" width="10" x="260" y="210"/><rect fill="black" height="10" width="10" x="270" y="0"/><rect fill="black" height="10" width="10" x="270" y="60"/><rect fill="black" height="10" width="10" x="270" y="80"/><rect fill="black" height="10" width="10" x="270" y="90"/><rect fill="black" height="10" width="10" x="270" y="110"/><rect fill="black" height="10" width="10" x="270" y="120"/><rect fill="black" height="10" width="10" x="270" y="170"/><rect fill="black" height="10" width="10" x="270" y="190"/><rect fill="black" height="10" width="10" x="270" y="200"/><rect fill="black" height="10" width="10" x="270" y="210"/><rect fill="black" height="10" width="10" x="270" y="250"/><rect fill="black" height="10" width="10" x="270" y="260"/><rect fill="black" height="10" width="10" x="270" y="270"/><rect fill="black" height="10" width="10" x="270" y="280"/><rect fill="black" height="10" width="10" x="280" y="0"/><rect fill="black" height="10" width="10" x="280" y="10"/><rect fill="black" height="10" width="10" x="280" y="20"/><rect fill="black" height="10" width="10" x="280" y="30"/><rect fill="black" height="10" width="10" x="280" y="40"/><rect fill="black" height="10" width="10" x="280" y="50"/><rect fill="black" height="10" width="10" x="280" y="60"/><rect fill="black" height="10" width="10" x="280" y="90"/><rect fill="black" height="10" width="10" x="280" y="100"/><rect fill="black" height="10" width="10" x="280" y="110"/><rect fill="black" height="10" width="10" x="280" y="130"/><rect fill="black" height="10" width="10" x="280" y="140"/><rect fill="black" height="10" width="10" x="280" y="180"/><rect fill="black" height="10" width="10" x="280" y="190"/><rect fill="black" height="10" width="10" x="280" y="210"/><rect fill="black" height="10" width="10" x="280" y="220"/><rect fill="black" height="10" width="10" x="280" y="230"/><rect fill="black" height="10" width="10" x="280" y="240"/><rect fill="black" height="10" width="10" x="280" y="260"/><rect fill="black" height="10" width="10" x="280" y="270"/><g transform="translate(105.0 105.0) scale(0.15625)"><ns0:style xmlns:ns0="http://www.w3.org/2000/svg" type="text/css">
	.st0{fill:#500778;}
</ns0:style>
<ns1:path xmlns:ns1="http://www.w3.org/2000/svg" class="st0" d="M443.7,4.5L27.8,196.4C-18.7,217.9-3.4,288,47.9,288H224v176c0,51.7,70.2,66.5,91.6,20.1L507.4,68.2  C526.3,27.3,483.6-13.9,443.7,4.5z"/>
</g></svg>